<?xml version="1.0" encoding="utf-8"?>
<!-- Generator: Adobe Illustrator 24.0.1, SVG Export Plug-In . SVG Version: 6.00 Build 0)  -->
<svg version="1.1" id="Warstwa_1" xmlns="http://www.w3.org/2000/svg" xmlns:xlink="http://www.w3.org/1999/xlink" x="0px" y="0px"
	 viewBox="0 0 502.9 118.6" style="enable-background:new 0 0 502.9 118.6;" xml:space="preserve">
<style type="text/css">
	.st0{fill-rule:evenodd;clip-rule:evenodd;fill:#EF7D00;}
	.st1{fill-rule:evenodd;clip-rule:evenodd;fill:#706F6F;}
</style>
<path class="st0" d="M35.1,54c-6,0-11.6,0.9-16.8,2.8C11.8,59.1,7.5,62.6,5.5,67l18.9-34.7c1.8-3.9,4.8-10.3,9.4-18.9
	c4.8-8.9,9.4-13.3,13.4-13.3h61.5L80.7,54H35.1z"/>
<path class="st1" d="M51.7,57.4H36.6c-5.8,0-11.6,1.2-17.2,3.6C12.7,63.9,8.6,67.7,7,72.5C5.7,76.3,5.1,80,5.1,83.4
	c0,6.4,1.6,12.3,4.9,17.7c1.1,1.8,2.8,4,5.1,6.4L0,116.6l49.6,1.1l22.6-43.4l-14.3,8.3c-2-2-3.5-3.6-4.7-4.9
	c-5.3-6-7.9-10.2-7.9-12.8c0-2.3,1.1-4.2,3.2-5.7C49.2,58.7,50.3,58.1,51.7,57.4z"/>
<path class="st0" d="M128.9,63.8c6,0,11.6-0.9,16.8-2.8c6.5-2.4,10.8-5.8,12.8-10.2l-18.9,34.7c-1.8,3.9-4.8,10.3-9.4,18.9
	c-4.8,8.9-9.4,13.3-13.4,13.3H55.2l28.1-53.9H128.9z"/>
<path class="st1" d="M112.3,60.4h15.1c5.8,0,11.6-1.2,17.2-3.6c6.7-2.8,10.8-6.7,12.3-11.5c1.3-3.8,1.9-7.5,1.9-10.9
	c0-6.4-1.6-12.3-4.9-17.7c-1.1-1.8-2.8-4-5.1-6.4L164,1.2l-49.6-1.1L91.8,43.6l14.3-8.3c2,2,3.5,3.6,4.7,4.9
	c5.3,6,7.9,10.2,7.9,12.8c0,2.3-1.1,4.2-3.2,5.7C114.7,59.1,113.7,59.7,112.3,60.4z"/>
<path class="st1" d="M462.2,74.2c-7.2,0-12.1,0.7-14.7,2c-1.8,1-3,2.5-3.6,4.6c-0.4,1.6-0.6,4.3-0.6,8.1c0,4.5,0.5,7.5,1.6,9.1
	c1,1.5,3,2.5,5.9,3.2c2.9,0.7,6.9,1,12.1,1c7.5,0,12.5-0.8,15-2.4c1.5-1,2.5-2.6,3-4.7c0.3-1.6,0.5-4.3,0.5-7.9c0-4.2-0.5-7-1.5-8.7
	c-1-1.5-2.9-2.7-5.7-3.4C471.4,74.6,467.4,74.2,462.2,74.2L462.2,74.2z M421.7-0.2h21.5v67.4h1c1.6-2.7,3.4-4.6,5.4-5.8
	c2-1.2,4.4-2.1,7.3-2.6c2.9-0.5,6.7-0.8,11.4-0.8c8.2,0,14.9,0.6,19.9,1.8c6.3,1.6,10.5,5,12.6,10.2c1.1,2.7,1.7,5.5,1.9,8.5
	c0.2,2.8,0.3,6,0.3,9.6c0,7-0.4,12-1.1,15c-1.6,6.5-5.3,10.8-11,12.8c-4.7,1.7-12,2.6-21.9,2.6c-10,0-16.9-1.2-20.8-3.4
	c-1.7-1-3.3-2.9-4.9-5.6H442v7.5h-20.3V-0.2z"/>
<path class="st1" d="M378.7,92.8c-7.2,0-11.7,0.4-13.5,1.3c-2.1,1-3.1,2.6-3.1,4.8c0,2.6,1.3,4.2,4,5c2.2,0.6,5.8,0.9,10.9,0.9
	c6.7,0,11.4-0.3,14.3-1c3.4-0.8,5.1-2.6,5.1-5.5c0-2.3-1.2-3.9-3.5-4.7C391.6,93,386.9,92.8,378.7,92.8L378.7,92.8z M364.3,77.6
	h-21.4c0.3-4.5,1.2-7.9,2.8-10.2c2.4-3.4,5.7-5.8,9.9-7c5.5-1.6,15.2-2.4,29-2.4c10.7,0,17.9,0.5,21.7,1.5c3.4,0.9,6.3,3,8.6,6.2
	c2.2,3.1,3.3,8.7,3.3,16.7v34.6h-20.7v-7.9h-1c-1.6,3.3-4.1,5.7-7.5,7.2c-2.1,0.9-5,1.5-8.8,1.8c-3,0.2-7.9,0.3-14.7,0.3
	c-7.5,0-12.9-0.6-16.1-1.9c-3.9-1.5-6.4-4.1-7.7-7.6c-0.8-2.3-1.2-5.1-1.2-8.4c0-6.7,1.6-11.5,4.9-14.5c3.6-3.2,9.3-5,17.1-5.3
	c4.6-0.2,10.4-0.3,17.5-0.3c5.1,0,8.8,0.4,11.2,1.3c1.6,0.6,3,1.7,4.5,3.2h1v-3c0-3.9-0.5-6.4-1.7-7.6c-1.2-1.3-3.4-2.1-6.6-2.4
	c-1.3-0.1-3.3-0.2-6.2-0.2c-8.6,0-13.7,0.4-15.4,1.2C365.5,73.6,364.6,75.2,364.3,77.6z"/>
<path class="st1" d="M280.7-0.3h21.5v59.7h34v15.4h-34v16.8c0,4.5,0.3,7.3,1,8.5c1.1,2,3.6,3,7.6,3c4.2,0,6.7-1,7.7-2.9
	c0.5-0.9,0.8-2.4,0.8-4.4c0-0.4,0-1.5,0-3.4H339c-0.1,5.2-0.4,9-1,11.6c-0.5,2.7-1.7,5.1-3.4,7.3c-1.7,2.1-3.8,3.7-6.2,4.7
	c-2.7,1.2-5.6,1.9-8.7,2.2c-3.3,0.3-6.9,0.5-10.7,0.5c-8.1,0-14-0.6-17.7-1.8c-2.5-0.8-4.7-2.2-6.5-4.1c-1.8-1.9-2.9-4.1-3.4-6.6
	c-0.5-2.4-0.7-7.2-0.7-14.4V74.9h-11.4V59.5h11.4V-0.3z"/>
<rect x="245" class="st1" width="21.5" height="117.1"/>
<path class="st1" d="M202,92.8c-7.2,0-11.7,0.4-13.5,1.3c-2.1,1-3.1,2.6-3.1,4.8c0,2.6,1.3,4.2,4,5c2.2,0.6,5.8,0.9,10.9,0.9
	c6.7,0,11.4-0.3,14.3-1c3.4-0.8,5.1-2.6,5.1-5.5c0-2.3-1.2-3.9-3.5-4.7C214.9,93,210.1,92.8,202,92.8L202,92.8z M187.6,77.6h-21.4
	c0.3-4.5,1.2-7.9,2.8-10.2c2.4-3.4,5.7-5.8,9.9-7c5.5-1.6,15.2-2.4,29-2.4c10.7,0,17.9,0.5,21.7,1.5c3.4,0.9,6.3,3,8.6,6.2
	c2.2,3.1,3.3,8.7,3.3,16.7v34.6h-20.7v-7.9h-1c-1.6,3.3-4.1,5.7-7.5,7.2c-2.1,0.9-5,1.5-8.8,1.8c-3,0.2-7.9,0.3-14.7,0.3
	c-7.5,0-12.9-0.6-16.1-1.9c-3.9-1.5-6.4-4.1-7.7-7.6c-0.8-2.3-1.2-5.1-1.2-8.4c0-6.7,1.6-11.5,4.9-14.5c3.6-3.2,9.3-5,17.1-5.3
	c4.6-0.2,10.4-0.3,17.5-0.3c5.1,0,8.8,0.4,11.2,1.3c1.6,0.6,3,1.7,4.5,3.2h1v-3c0-3.9-0.5-6.4-1.7-7.6c-1.2-1.3-3.4-2.1-6.6-2.4
	c-1.3-0.1-3.3-0.2-6.2-0.2c-8.6,0-13.7,0.4-15.4,1.2C188.8,73.6,187.9,75.2,187.6,77.6z"/>
</svg>
