<?xml version="1.0" encoding="utf-8"?>
<!-- Generator: Adobe Illustrator 24.0.1, SVG Export Plug-In . SVG Version: 6.00 Build 0)  -->
<svg version="1.1" id="Warstwa_1" xmlns="http://www.w3.org/2000/svg" xmlns:xlink="http://www.w3.org/1999/xlink" x="0px" y="0px"
	 viewBox="0 0 164 118.6" style="enable-background:new 0 0 502.9 118.6;" xml:space="preserve">
<style type="text/css">
	.st0{fill-rule:evenodd;clip-rule:evenodd;fill:#EF7D00;}
	.st1{fill-rule:evenodd;clip-rule:evenodd;fill:#212529;}
</style>
<path class="st0" d="M35.1,54c-6,0-11.6,0.9-16.8,2.8C11.8,59.1,7.5,62.6,5.5,67l18.9-34.7c1.8-3.9,4.8-10.3,9.4-18.9
	c4.8-8.9,9.4-13.3,13.4-13.3h61.5L80.7,54H35.1z"/>
<path class="st1" d="M51.7,57.4H36.6c-5.8,0-11.6,1.2-17.2,3.6C12.7,63.9,8.6,67.7,7,72.5C5.7,76.3,5.1,80,5.1,83.4
	c0,6.4,1.6,12.3,4.9,17.7c1.1,1.8,2.8,4,5.1,6.4L0,116.6l49.6,1.1l22.6-43.4l-14.3,8.3c-2-2-3.5-3.6-4.7-4.9
	c-5.3-6-7.9-10.2-7.9-12.8c0-2.3,1.1-4.2,3.2-5.7C49.2,58.7,50.3,58.1,51.7,57.4z"/>
<path class="st0" d="M128.9,63.8c6,0,11.6-0.9,16.8-2.8c6.5-2.4,10.8-5.8,12.8-10.2l-18.9,34.7c-1.8,3.9-4.8,10.3-9.4,18.9
	c-4.8,8.9-9.4,13.3-13.4,13.3H55.2l28.1-53.9H128.9z"/>
<path class="st1" d="M112.3,60.4h15.1c5.8,0,11.6-1.2,17.2-3.6c6.7-2.8,10.8-6.7,12.3-11.5c1.3-3.8,1.9-7.5,1.9-10.9
	c0-6.4-1.6-12.3-4.9-17.7c-1.1-1.8-2.8-4-5.1-6.4L164,1.2l-49.6-1.1L91.8,43.6l14.3-8.3c2,2,3.5,3.6,4.7,4.9
	c5.3,6,7.9,10.2,7.9,12.8c0,2.3-1.1,4.2-3.2,5.7C114.7,59.1,113.7,59.7,112.3,60.4z"/>
</svg>
