<svg xmlns="http://www.w3.org/2000/svg" width="50" height="50" viewBox="0 0 50 50">
  <path id="Shape_12" data-name="Shape 12" d="M1068.031,5002.78v-9.761c0-5.229-2.792-7.662-6.513-7.662a5.614,5.614,0,0,0-5.1,2.812v-2.412h-5.659c.075,1.6,0,17.023,0,17.023h5.659v-9.507a3.845,3.845,0,0,1,.187-1.379,3.094,3.094,0,0,1,2.9-2.069c2.049,0,2.867,1.561,2.867,3.849v9.107Zm-23.231-19.346a3.152,3.152,0,1,0-.036,0ZM1054,5016a25,25,0,1,1,25-25A25,25,0,0,1,1054,5016Zm-6.372-13.219v-17.023h-5.658v17.023Z" transform="translate(-1029 -4965.999)" fill="#fff"/>
</svg>
