<svg xmlns="http://www.w3.org/2000/svg" width="50" height="50" viewBox="0 0 50 50">
  <path id="Shape_11" data-name="Shape 11" d="M896.978,4990.913a25,25,0,1,1,25,25A25,25,0,0,1,896.978,4990.913Zm10,4.2v4.505a5.6,5.6,0,0,0,5.6,5.6h19.47a5.6,5.6,0,0,0,5.6-5.6v-4.505a5.6,5.6,0,0,0-5.6-5.6H912.58A5.6,5.6,0,0,0,906.976,4995.114Zm12.551-10.465a2.276,2.276,0,0,0,.688,1.737,2.588,2.588,0,0,0,1.834.641,2.678,2.678,0,0,0,1.873-.623,2.223,2.223,0,0,0,.675-1.721v-4.417a2.055,2.055,0,0,0-.691-1.6,2.574,2.574,0,0,0-1.778-.62,2.892,2.892,0,0,0-1.9.587,1.967,1.967,0,0,0-.7,1.584h0Zm6.488.757a1.81,1.81,0,0,0,.306,1.148,1.1,1.1,0,0,0,.913.384,2.2,2.2,0,0,0,1.014-.275,3.66,3.66,0,0,0,1.005-.795v.945H931v-8.552h-1.749v6.491a2.421,2.421,0,0,1-.538.463,1.025,1.025,0,0,1-.488.182.424.424,0,0,1-.354-.14.685.685,0,0,1-.113-.438v-6.557h-1.745Zm-10.886-3.187v4.6H917.1V4982l2.288-6.783h-2l-1.216,4.63h-.125l-1.276-4.63h-1.983Zm13.7,19.364a2.467,2.467,0,0,1-.6-1.761v-3.489a2.189,2.189,0,0,1,.66-1.643,2.333,2.333,0,0,1,1.7-.637,2.185,2.185,0,0,1,1.64.59,2.321,2.321,0,0,1,.57,1.69v1.982h-2.966v1.461a1.679,1.679,0,0,0,.151.851.579.579,0,0,0,.525.234.64.64,0,0,0,.539-.2,1.67,1.67,0,0,0,.154-.886v-.354h1.6v.4a2.476,2.476,0,0,1-.586,1.8,2.313,2.313,0,0,1-1.741.6A2.14,2.14,0,0,1,928.828,5001.583Zm1.159-5.957a1.142,1.142,0,0,0-.159.7v.785H931.2v-.785a1.165,1.165,0,0,0-.163-.7.6.6,0,0,0-.516-.214A.619.619,0,0,0,929.987,4995.626Zm-12.363,6.153a1.682,1.682,0,0,1-.272-1.042v-6.492h1.55v5.956a.656.656,0,0,0,.1.4.386.386,0,0,0,.32.123.884.884,0,0,0,.431-.163,2.161,2.161,0,0,0,.48-.415h0v-5.9h1.552v7.763h-1.552v-.85a3.47,3.47,0,0,1-.9.719,1.886,1.886,0,0,1-.9.245A.974.974,0,0,1,917.625,5001.78Zm7.558.163a1.986,1.986,0,0,1-.661-.527v.594h-1.568v-10.522h1.568v3.391a2.4,2.4,0,0,1,.664-.541,1.538,1.538,0,0,1,.715-.186,1.342,1.342,0,0,1,1.125.5,2.294,2.294,0,0,1,.39,1.449v4.311a1.932,1.932,0,0,1-.367,1.263,1.282,1.282,0,0,1-1.052.439A1.86,1.86,0,0,1,925.182,5001.942Zm-.343-6.481a1.106,1.106,0,0,0-.318.237v4.837a1.289,1.289,0,0,0,.366.275.926.926,0,0,0,.375.083.51.51,0,0,0,.419-.165.849.849,0,0,0,.135-.536v-4.011a.942.942,0,0,0-.163-.6.6.6,0,0,0-.484-.2A.742.742,0,0,0,924.84,4995.461Zm-11.727,6.548v-8.992H911.3v-1.53h5.369v1.53h-1.809v8.992Zm8.4-16.656a.737.737,0,0,1-.186-.541v-4.661a.563.563,0,0,1,.2-.451.763.763,0,0,1,.52-.174.852.852,0,0,1,.56.174.542.542,0,0,1,.214.451v4.661a.709.709,0,0,1-.209.541.8.8,0,0,1-.565.192A.7.7,0,0,1,921.513,4985.354Z" transform="translate(-896.978 -4965.914)" fill="#fff"/>
</svg>
