<svg xmlns="http://www.w3.org/2000/svg" width="164.75" height="164.233" viewBox="0 0 164.75 164.233">
  <g id="Group_21" data-name="Group 21" transform="translate(-1136.26 -1193.987)">
    <g id="Ellipse_3_copy_2" data-name="Ellipse 3 copy 2" transform="translate(1136.26 1208.38)" fill="#fff" stroke="#3a3a3a" stroke-linejoin="round" stroke-width="5">
      <ellipse cx="75.16" cy="74.92" rx="75.16" ry="74.92" stroke="none"/>
      <ellipse cx="75.16" cy="74.92" rx="72.66" ry="72.42" fill="none"/>
    </g>
    <path id="Shape_7_copy_8" data-name="Shape 7 copy 8" d="M1215.3,1223.287a55.062,55.062,0,0,0-38.675,16.945l-21.192-20.272a84.383,84.383,0,0,1,59.248-25.955Z" fill="#53b62c"/>
    <path id="Shape_7_copy_9" data-name="Shape 7 copy 9" d="M1214.68,1194.006a84.391,84.391,0,0,1,60.293,23.442l-20.317,21.143a55.065,55.065,0,0,0-39.356-15.3Z" fill="#91b02b"/>
    <path id="Shape_7_copy_10" data-name="Shape 7 copy 10" d="M1274.973,1217.449a83.97,83.97,0,0,1,26.017,59.106l-29.349.618a54.826,54.826,0,0,0-16.985-38.583Z" fill="#c0ad28"/>
    <path id="Shape_7_copy_11" data-name="Shape 7 copy 11" d="M1271.641,1277.173l29.351-.618a83.976,83.976,0,0,1-23.5,60.15l-21.191-20.268a54.821,54.821,0,0,0,15.339-39.264" fill="#eeaa28"/>
    <path id="Shape_4" data-name="Shape 4" d="M1236.154,1304.173l-12.509-12.523a20.91,20.91,0,1,0-16.7,8.325,20.6,20.6,0,0,0,12.648-4.267l12.579,12.452a2.8,2.8,0,0,0,2.026.839,2.918,2.918,0,0,0,2.027-.839A2.854,2.854,0,0,0,1236.154,1304.173Zm-29.14-9.864a15.321,15.321,0,1,1,10.831-26.164,14.96,14.96,0,0,1,4.472,10.843,15.365,15.365,0,0,1-4.472,10.844A15.041,15.041,0,0,1,1207.014,1294.309Z" fill="#3a3a3a"/>
  </g>
</svg>
