<svg xmlns="http://www.w3.org/2000/svg" width="40" height="40" viewBox="0 0 40 40">
  <path id="Shape_9_copy" data-name="Shape 9 copy" d="M1251.452,200.188a4.044,4.044,0,0,0-2.724,4.067l.042.692-.7-.085a11.35,11.35,0,0,1-6.649-3.277l-.922-.918-.238.678a4.082,4.082,0,0,0,.866,4.181c.559.593.433.678-.531.325a1.647,1.647,0,0,0-.657-.156,5.072,5.072,0,0,0,.5,1.893,4.512,4.512,0,0,0,1.914,1.808l.684.324-.81.014c-.782,0-.81.014-.726.312a4.225,4.225,0,0,0,2.612,2.316l.866.3-.754.452a7.824,7.824,0,0,1-3.744,1.045,4.077,4.077,0,0,0-1.146.114,10.7,10.7,0,0,0,2.7,1.243,11.788,11.788,0,0,0,9.164-1.045,12.274,12.274,0,0,0,4.652-5.481,14.572,14.572,0,0,0,.951-4.236c0-.65.042-.735.824-1.511a9.285,9.285,0,0,0,.978-1.088c.139-.268.125-.268-.587-.028-1.187.424-1.355.367-.767-.268a4.112,4.112,0,0,0,.95-1.512c0-.042-.21.029-.447.156a7.731,7.731,0,0,1-1.23.48l-.754.241-.684-.467a5.693,5.693,0,0,0-1.187-.621A4.771,4.771,0,0,0,1251.452,200.188ZM1248.674,228a20,20,0,1,1,20-20A20,20,0,0,1,1248.674,228Z" transform="translate(-1228.674 -187.999)" fill="#3a3a3a"/>
</svg>
