<svg xmlns="http://www.w3.org/2000/svg" width="163.95" height="162.631" viewBox="0 0 163.95 162.631">
  <g id="Group_21" data-name="Group 21" transform="translate(-331.99 -1208.38)">
    <g id="Ellipse_3" data-name="Ellipse 3" transform="translate(345.62 1208.38)" fill="#fff" stroke="#3a3a3a" stroke-linejoin="round" stroke-width="5">
      <ellipse cx="75.16" cy="74.92" rx="75.16" ry="74.92" stroke="none"/>
      <ellipse cx="75.16" cy="74.92" rx="72.66" ry="72.42" fill="none"/>
    </g>
    <path id="Shape_7_copy_4" data-name="Shape 7 copy 4" d="M417.7,1341.711a55.06,55.06,0,0,0,38.675-16.945l21.192,20.271a84.379,84.379,0,0,1-59.248,25.954Z" fill="#951681"/>
    <path id="Shape_7_copy_5" data-name="Shape 7 copy 5" d="M418.32,1370.992a84.389,84.389,0,0,1-60.293-23.441l20.317-21.144a55.065,55.065,0,0,0,39.356,15.3Z" fill="#b8515d"/>
    <path id="Shape_7_copy_6" data-name="Shape 7 copy 6" d="M358.027,1347.549a83.968,83.968,0,0,1-26.016-59.106l29.349-.618a54.825,54.825,0,0,0,16.985,38.583Z" fill="#d37e42"/>
    <path id="Shape_7_copy_7" data-name="Shape 7 copy 7" d="M361.359,1287.825l-29.351.618a83.976,83.976,0,0,1,23.5-60.15L376.7,1248.56a54.824,54.824,0,0,0-15.339,39.265" fill="#eeaa28"/>
    <path id="Shape_6" data-name="Shape 6" d="M409.836,1314.985a6.191,6.191,0,0,1-6.31-6.3v-9.237A22.867,22.867,0,0,1,397,1283.5a23.524,23.524,0,0,1,6.521-15.953v-9.236a6.191,6.191,0,0,1,6.31-6.3h20.826a6.192,6.192,0,0,1,6.311,6.3v9.236a23.891,23.891,0,0,1,3.786,5.248,24.611,24.611,0,0,1,1.894,5.038h4.417a1.829,1.829,0,0,1,1.894,2.1v7.137a1.986,1.986,0,0,1-2.1,2.1h-4.417a20.726,20.726,0,0,1-5.68,10.285v9.237a6.191,6.191,0,0,1-6.311,6.3Zm-2.1-6.3a1.985,1.985,0,0,0,2.1,2.1h20.615a1.986,1.986,0,0,0,2.1-2.1v-5.667a23.373,23.373,0,0,1-24.823,0Zm3.577-41.982a18.32,18.32,0,0,0-7.994,7.977,20.9,20.9,0,0,0-2.1,8.816,18.834,18.834,0,0,0,18.932,18.893,19.164,19.164,0,0,0,13.253-5.249,18.743,18.743,0,0,0,5.469-10.7,23.752,23.752,0,0,0,0-6.3,23.943,23.943,0,0,0-1.894-5.457,19.249,19.249,0,0,0-25.663-7.977Zm31.974,16.792v1.47h1.683v-2.938h-1.683Zm-12.411-20.571c.631.419,1.051.63,1.683,1.049v-5.667a1.986,1.986,0,0,0-2.1-2.1H409.836a2.106,2.106,0,0,0-2.1,2.1v5.667c.631-.21,1.052-.63,1.683-.84a20.934,20.934,0,0,1,10.728-2.729A23.08,23.08,0,0,1,430.872,1262.927Zm2.525,34.215Zm-7.574-5.037-7.152-7.137c-.211-.21-.211-.42-.42-.63a1.259,1.259,0,0,1-.211-.84v-14.274a2.1,2.1,0,0,1,4.208,0v13.434l6.52,6.508a2.026,2.026,0,0,1,0,2.938,2.038,2.038,0,0,1-2.945,0Z" fill="#3a3a3a"/>
  </g>
</svg>
