<svg id="Inteligentny_obiekt_wektorowy" data-name="Inteligentny obiekt wektorowy" xmlns="http://www.w3.org/2000/svg" xmlns:xlink="http://www.w3.org/1999/xlink" width="99" height="106" viewBox="0 0 99 106">
  <defs>
    <clipPath id="clip-path">
      <rect id="Rectangle_11" data-name="Rectangle 11" width="99" height="106" fill="none"/>
    </clipPath>
  </defs>
  <g id="Group_6" data-name="Group 6">
    <g id="Group_5" data-name="Group 5" clip-path="url(#clip-path)">
      <path id="Path_10" data-name="Path 10" d="M38.925,8.788a2.929,2.929,0,1,1-2.916,2.929,2.922,2.922,0,0,1,2.916-2.929" fill="#fff"/>
      <rect id="Rectangle_9" data-name="Rectangle 9" width="17.708" height="3.906" transform="translate(44.478 39.055)" fill="#fff"/>
      <rect id="Rectangle_10" data-name="Rectangle 10" width="23.319" height="3.906" transform="translate(15.547 74.204)" fill="#fff"/>
      <path id="Path_11" data-name="Path 11" d="M81.5,70.3a11.7,11.7,0,0,1-11.66,11.715V85.92A15.584,15.584,0,0,0,85.388,70.3Z" fill="#fff"/>
      <path id="Path_12" data-name="Path 12" d="M15.547,62.487v3.906H43.063a27.341,27.341,0,0,1,.836-3.906Z" fill="#fff"/>
      <path id="Path_13" data-name="Path 13" d="M38,50.771v3.905h9.663a27.513,27.513,0,0,1,3.29-3.905Z" fill="#fff"/>
      <path id="Path_14" data-name="Path 14" d="M69.96,46.865A23.423,23.423,0,0,0,49.835,82.1L35.476,96.578a3.793,3.793,0,0,0-.7,1.058H7.774a3.9,3.9,0,0,1-3.888-3.905v-70.3a3.9,3.9,0,0,1,3.888-3.905h8.438a11.754,11.754,0,0,0-.665,3.812v7.9H62.186V23.433a11.72,11.72,0,0,0-.671-3.905H69.96a3.9,3.9,0,0,1,3.887,3.905V43.271a26.9,26.9,0,0,1,3.886.84V23.433a7.792,7.792,0,0,0-7.772-7.811H59.169a11.63,11.63,0,0,0-5.414-3.45,5.363,5.363,0,0,1-3.682-3.7,11.649,11.649,0,0,0-22.414,0,5.369,5.369,0,0,1-3.687,3.7,11.609,11.609,0,0,0-5.407,3.449H7.774A7.792,7.792,0,0,0,0,23.433v70.3a7.792,7.792,0,0,0,7.774,7.811h27.34a3.562,3.562,0,0,0,.371.558l2.752,2.759a3.871,3.871,0,0,0,5.495-.007l3.285-3.31H69.96a7.791,7.791,0,0,0,7.772-7.811V92.369a23.436,23.436,0,0,0-7.772-45.5M19.433,23.37a7.851,7.851,0,0,1,5.615-7.444,9.243,9.243,0,0,0,6.347-6.375,7.768,7.768,0,0,1,14.944,0,9.236,9.236,0,0,0,6.343,6.374A7.84,7.84,0,0,1,58.3,23.433v3.905H19.433ZM40.98,102.095l-2.749-2.761L52.094,85.347a23.394,23.394,0,0,0,2.741,2.768Zm32.866-8.364a3.9,3.9,0,0,1-3.887,3.905H50.893l7.16-7.216a22.72,22.72,0,0,0,15.793,2.959ZM69.96,89.826A19.527,19.527,0,1,1,89.392,70.3,19.5,19.5,0,0,1,69.96,89.826" fill="#fff"/>
      <path id="Path_15" data-name="Path 15" d="M37.1,36.916,25.574,48.5l-2.912-2.925-1.925,1.934,4.834,4.857,3.408-3.425v7.248H18.107V42.534h8.155L28.979,39.8H15.389V58.921H31.7V46.21l7.327-7.362Z" fill="#fff"/>
      <path id="Path_16" data-name="Path 16" d="M88.849,70.4l10.145.215a29.353,29.353,0,0,0-8.122-20.941l-7.325,7.056a19.163,19.163,0,0,1,5.3,13.67" fill="#eeaa28"/>
      <path id="Path_17" data-name="Path 17" d="M90,91.194a29.331,29.331,0,0,0,8.992-20.578L88.849,70.4a19.15,19.15,0,0,1-5.871,13.432Z" fill="#aea259"/>
      <path id="Path_18" data-name="Path 18" d="M69.16,99.355A29.052,29.052,0,0,0,90,91.195l-7.023-7.361a18.958,18.958,0,0,1-13.6,5.327Z" fill="#6d9a8d"/>
      <path id="Path_19" data-name="Path 19" d="M69.374,89.162a18.966,18.966,0,0,1-13.367-5.9L48.681,90.32A29.064,29.064,0,0,0,69.16,99.355Z" fill="#1790cf"/>
    </g>
  </g>
</svg>
