<svg xmlns="http://www.w3.org/2000/svg" viewBox="0 0 248 248"><defs><style>.cls-1{fill:#008fd3;}.cls-2,.cls-3,.cls-4{fill:#f0ab00;}.cls-3{opacity:0.7;}.cls-4{opacity:0.4;}</style></defs><title>281955-pictogram</title><g id="outlines"><path d="M112.76,205a9.3,9.3,0,1,1,9.3-9.3A9.31,9.31,0,0,1,112.76,205Zm0-14.6a5.3,5.3,0,1,0,5.3,5.31A5.31,5.31,0,0,0,112.76,190.41Zm44.09,5.87V202c0,7.9-3.22,11.12-11.11,11.12H79.8c-7.91,0-11.14-3.22-11.14-11.12v-8.28h-4V202c0,10.17,5,15.12,15.14,15.12h65.94c10.17,0,15.11-4.95,15.11-15.12v-1.69Zm38.32-46.94h0L185,131.68c-.14-.25-.29-.48-.45-.71l-.22-.33-.15-.23c-.28-.42-.58-.81-.89-1.2l-.06-.08-.18-.22c-.32-.38-.65-.74-1.06-1.16l-.21-.22c-.34-.33-.68-.64-1-.94l-.08-.07-.32-.27c-.33-.26-.66-.51-1-.74l-.6-.41c-.29-.19-.59-.37-.88-.54l-.82-.45-.74-.36c-.34-.16-.69-.31-1-.44l-.62-.23c-.39-.14-.79-.27-1.19-.38l-.46-.12-.11,0c-.41-.1-.83-.2-1.25-.27l-.5-.08-.13,0c-.41-.06-.81-.11-1.23-.15l-.57,0-.39,0-.63,0h-7.29V37.78c0-10.18-4.94-15.13-15.11-15.13H79.8c-10.19,0-15.14,4.95-15.14,15.12V94.6L53,87.86a10.39,10.39,0,1,0-10.39,18L56.66,114v-4.62l-12.06-7a6.39,6.39,0,0,1-2.34-8.73A6.39,6.39,0,0,1,51,91.33l13.67,7.89V114h4V37.78c0-7.9,3.23-11.12,11.14-11.12h65.94c7.89,0,11.11,3.22,11.11,11.13V122H137.64a19.28,19.28,0,0,0-13.77,5.73l-23.05,23.05,1.41,1.41,2.53,2.53h0l1.73,1.73a19.44,19.44,0,0,0,27.43,0l7-7h15.9v27.56a19.45,19.45,0,0,0,19.38,19.42h1v-4h-1a15.44,15.44,0,0,1-15.38-15.42V145.36H139.29l-8.21,8.2a15.44,15.44,0,0,1-21.55.24l-.22-.22-2.84-2.84,20.23-20.23A15.31,15.31,0,0,1,137.64,126h30.5l.36,0,.5,0,.41,0c.33,0,.65.07,1,.12l.16,0,.34.05c.34.06.67.14,1,.22l.12,0,.34.09c.32.09.64.2,1,.31l.49.18c.28.11.55.23.82.35l.59.29.65.36.7.42.47.32c.27.19.54.39.79.59l.31.26c.28.24.56.49.84.76l.22.22c.27.28.54.57.8.87l.19.23c.25.31.49.62.72,1l.34.52c.11.16.21.32.31.48l8.07,14h0l13.16,22.8v-8ZM67.64,185.68h-5.3a8.92,8.92,0,1,1,0-17.85h5.3a8.92,8.92,0,1,1,0,17.85Zm-5.3-13.85a4.92,4.92,0,1,0,0,9.85h5.3a4.92,4.92,0,1,0,0-9.85Zm11.95-31.09a10.44,10.44,0,0,0,1.23-1A10.39,10.39,0,0,0,68.17,122H63.81a10.39,10.39,0,0,0-7.35,17.74,10.51,10.51,0,0,0,1.23,1,10.38,10.38,0,0,0,6.12,18.77h4.37a10.38,10.38,0,0,0,6.11-18.77ZM63.81,126h4.37a6.39,6.39,0,0,1,4.52,10.91,6.16,6.16,0,0,1-4.39,1.87H63.65a6.15,6.15,0,0,1-4.37-1.87A6.39,6.39,0,0,1,63.81,126Zm8.89,27.68a6.34,6.34,0,0,1-4.52,1.87H63.8a6.39,6.39,0,0,1-.08-12.78h4.53a6.39,6.39,0,0,1,4.44,10.9Z"/></g><g id="color_band" data-name="color band"><path class="cls-1" d="M141,149.36l-7,7a19.44,19.44,0,0,1-27.43,0l-1.73-1.73h0l-2.53-2.53-1.41-1.41,23.05-23.05A19.28,19.28,0,0,1,137.64,122h10.84V37.87H77V127a10.32,10.32,0,0,1,0,10.79v6a10.28,10.28,0,0,1,0,10.77v23.83h71.44v-29Z"/></g><g id="_100_band" data-name="100% band"><rect class="cls-2" x="77.04" y="37.87" width="71.44" height="35.12"/></g><g id="_70_band" data-name="70% band"><rect class="cls-3" x="77.04" y="72.99" width="71.44" height="35.12"/></g><g id="_40_band" data-name="40% band"><path class="cls-4" d="M123.87,127.69A19.28,19.28,0,0,1,137.64,122h10.84V108.12H77V127a10.32,10.32,0,0,1,0,10.8v5.48h31.29Z"/></g></svg>