<svg xmlns="http://www.w3.org/2000/svg" xmlns:xlink="http://www.w3.org/1999/xlink" width="93" height="56" viewBox="0 0 93 56">
  <defs>
    <radialGradient id="radial-gradient" cx="0.701" cy="-0.352" r="1.629" gradientTransform="translate(0.197) scale(0.606 1)" gradientUnits="objectBoundingBox">
      <stop offset="0" stop-color="#ffa900"/>
      <stop offset="0.339" stop-color="#fda600"/>
      <stop offset="0.58" stop-color="#f89c00"/>
      <stop offset="0.629" stop-color="#f79a00"/>
      <stop offset="1" stop-color="#d97100"/>
    </radialGradient>
  </defs>
  <g id="Inteligentny_obiekt_wektorowy_copy" data-name="Inteligentny obiekt wektorowy copy" transform="translate(-62.506 -121.958)">
    <g id="Group_20" data-name="Group 20">
      <path id="Path_54" data-name="Path 54" d="M155.505,176.481l-93-20.446V121.958l93,20.446Z" fill="#404040"/>
      <g id="Group_13" data-name="Group 13">
        <path id="Path_55" data-name="Path 55" d="M62.506,156.035H97.359l34.112-34.077H62.506v34.077" fill="#8c8c8c" fill-rule="evenodd"/>
        <path id="Path_56" data-name="Path 56" d="M103.834,138.266h-1.5V132.8h1.5c2,0,3.581.66,3.581,2.7,0,2.1-1.586,2.766-3.581,2.766m-16.088,3.9a6.17,6.17,0,0,1-2.177-.384L87.723,135h.044l2.107,6.8A6.2,6.2,0,0,1,87.746,142.162Zm15.689-13.8-6.789,0v16.121l-5.931-16.121H84.836l-5.065,13.48c-.536-3.4-4.057-4.575-6.828-5.455-1.833-.584-3.769-1.449-3.751-2.4.013-.78,1.042-1.508,3.073-1.4a11.108,11.108,0,0,1,4.964,1.337l2.364-4.1A18.419,18.419,0,0,0,71.9,128h-.014a9.339,9.339,0,0,0-6.788,2.478,5.7,5.7,0,0,0-1.627,3.954,5.31,5.31,0,0,0,2.333,4.736,16.024,16.024,0,0,0,4.614,2.112c1.884.578,3.423,1.086,3.4,2.168a1.559,1.559,0,0,1-.443,1.058,2.99,2.99,0,0,1-2.186.685,9.412,9.412,0,0,1-5.623-1.6l-2.1,4.162a15.74,15.74,0,0,0,7.684,2.039h.352a9.314,9.314,0,0,0,5.845-1.96c.083-.068.166-.142.247-.213l-.68,1.817h6.166l1.034-3.144a11.793,11.793,0,0,0,7.164.028l1,3.116h10.056v-6.513h2.193c5.3,0,8.44-2.695,8.44-7.214C112.972,130.674,109.924,128.366,103.435,128.366Z" fill="#fff" fill-rule="evenodd"/>
      </g>
      <path id="Path_57" data-name="Path 57" d="M153.61,176.065H89.593l-4.58,1.893h70.493Z" fill="#cd8300"/>
      <path id="Path_58" data-name="Path 58" d="M155.506,177.958V142.4l-1.9,1.894v31.767Z" fill="#cd8300"/>
      <path id="Path_59" data-name="Path 59" d="M89.593,176.065,121.439,144.3l-.785-1.894L85.013,177.958Z" fill="#ffcd3b"/>
      <path id="Path_60" data-name="Path 60" d="M155.506,142.4H120.654l.785,1.894H153.61Z" fill="#ffcd3b"/>
      <path id="Path_61" data-name="Path 61" d="M153.61,144.3v31.767H89.593L121.439,144.3Z" fill="#ffa900"/>
      <path id="Path_62" data-name="Path 62" d="M101.154,164.532l52.456,11.533V144.3H121.439Z" fill="url(#radial-gradient)"/>
      <g id="Group_15" data-name="Group 15">
        <g id="Group_14" data-name="Group 14">
          <path id="Path_63" data-name="Path 63" d="M118.716,164.094a3.317,3.317,0,0,0-2.276-.7h-3.367v8.433h1.555V168.7h1.8a3.385,3.385,0,0,0,2.168-.581,2.484,2.484,0,0,0,1.013-2.035A2.654,2.654,0,0,0,118.716,164.094Zm-1.139,2.943a1.664,1.664,0,0,1-1.254.35h-1.695V164.7h1.695a1.665,1.665,0,0,1,1.254.349,1.363,1.363,0,0,1,0,1.985Z" fill="#fff"/>
          <path id="Path_64" data-name="Path 64" d="M125.019,170.646V168.5a2.2,2.2,0,0,0-2.5-2.394,2.829,2.829,0,0,0-1.653.441,1.643,1.643,0,0,0-.662,1.27l-.006.053h1.335l0-.043a.544.544,0,0,1,.206-.423,1.434,1.434,0,0,1,.823-.246c.606,0,1.05.321,1.051.7,0,.4-.3.591-1.067.665a6.151,6.151,0,0,0-1.542.212,1.609,1.609,0,0,0-1.061,1.552,1.735,1.735,0,0,0,1.848,1.752h.006a2.2,2.2,0,0,0,1.808-.912,2.946,2.946,0,0,0,.152.672l.013.029h1.55l-.038-.071A2,2,0,0,1,125.019,170.646Zm-1.426-.7a1.087,1.087,0,0,1-1.216,1.038c-.571,0-.91-.275-.912-.7s.285-.677.982-.866a1.872,1.872,0,0,0,1.145-.63Z" fill="#fff"/>
          <path id="Path_65" data-name="Path 65" d="M127.938,167.393v-1.08h-1.427v5.513h1.427v-1.939a3.881,3.881,0,0,1,.241-1.6,1.507,1.507,0,0,1,1.385-.814,3.552,3.552,0,0,1,.4.035l.053.005v-1.352l-.05,0A2.232,2.232,0,0,0,127.938,167.393Z" fill="#fff"/>
          <path id="Path_66" data-name="Path 66" d="M132.991,164.433h-1.427v1.88h-.726v1.052h.726v3.059a1.205,1.205,0,0,0,.452,1.148,1.964,1.964,0,0,0,1.23.254H134.3v-1.18h-.422c-.773-.016-.873-.093-.888-.689v-2.592h1.31v-1.052h-1.31Z" fill="#fff"/>
          <path id="Path_67" data-name="Path 67" d="M138.643,166.1a2.026,2.026,0,0,0-1.695.855v-.645H135.52v5.513h1.43v-3.27c0-.86.448-1.4,1.156-1.4s1.032.439,1.039,1.4v3.27h1.428v-3.738A1.82,1.82,0,0,0,138.643,166.1Z" fill="#fff"/>
          <path id="Path_68" data-name="Path 68" d="M144.419,166.114a2.509,2.509,0,0,0-2.072.93,3.646,3.646,0,0,0-.676,2.166,2.636,2.636,0,0,0,2.76,2.826,2.875,2.875,0,0,0,2-.725,1.889,1.889,0,0,0,.575-1.159l.01-.056h-1.544l-.009.036a1.035,1.035,0,0,1-1.077.85c-.753,0-1.207-.565-1.225-1.586H147.1l.006-.039a1.043,1.043,0,0,0,.012-.172C147.117,167.244,146.138,166.118,144.419,166.114Zm-1.183,2.231c.141-.769.567-1.176,1.218-1.178a1.148,1.148,0,0,1,1.164,1.178Z" fill="#fff"/>
          <path id="Path_69" data-name="Path 69" d="M151.663,166.162a2.231,2.231,0,0,0-2.031,1.233v-1.082H148.2v5.513h1.428v-1.939a3.868,3.868,0,0,1,.241-1.6,1.506,1.506,0,0,1,1.384-.814,3.566,3.566,0,0,1,.4.035l.052.005v-1.352Z" fill="#fff"/>
        </g>
      </g>
      <g id="Group_18" data-name="Group 18">
        <g id="Group_17" data-name="Group 17">
          <g id="Group_16" data-name="Group 16">
            <path id="Path_70" data-name="Path 70" d="M132.261,161.137h-1.575l-.317-1.162c-.376,1.068-1.046,1.479-2.409,1.479a2.591,2.591,0,0,1-2.351-1c-.47-.728-.588-1.326-.588-3.017,0-2.618.188-3.534.87-4.179a3.751,3.751,0,0,1,2.773-.822c1.552,0,2.575.4,3.139,1.233a2.759,2.759,0,0,1,.458,1.643h-2.868v-.364a.66.66,0,0,0-.693-.752c-.506,0-.729.282-.729.916v3.616c0,.669.223.963.729.963a.843.843,0,0,0,.6-.223,1.2,1.2,0,0,0,.177-.822V158.4h-.705v-1.655h3.491Z" fill="#fff"/>
            <path id="Path_71" data-name="Path 71" d="M139.287,155.432a3.429,3.429,0,0,1,.646,2.547,3.277,3.277,0,0,1-.834,2.653,4.69,4.69,0,0,1-5.019,0,3.35,3.35,0,0,1-.835-2.665,3.561,3.561,0,0,1,.646-2.536,4.523,4.523,0,0,1,5.4,0Zm-2.152,1.643c0-.575-.164-.833-.541-.833s-.54.246-.54.833v1.749c0,.587.164.834.54.834s.541-.247.541-.834Z" fill="#fff"/>
            <path id="Path_72" data-name="Path 72" d="M143.8,161.137h-2.786v-8.382H143.8Z" fill="#fff"/>
            <path id="Path_73" data-name="Path 73" d="M151.589,152.755v8.382H148.8v-1.009a2.019,2.019,0,0,1-1.962,1.232,1.675,1.675,0,0,1-1.528-.775,5.091,5.091,0,0,1-.446-2.583,5.886,5.886,0,0,1,.4-2.654,1.773,1.773,0,0,1,1.622-.81,2.039,2.039,0,0,1,1.822.963v-2.747Zm-2.879,4.661c0-.5-.176-.763-.506-.763-.4,0-.528.3-.528,1.221,0,1.069.13,1.4.528,1.4.353,0,.506-.259.506-.857Z" fill="#fff"/>
          </g>
        </g>
      </g>
      <g id="Group_19" data-name="Group 19">
        <path id="Path_74" data-name="Path 74" d="M78.815,175.621h1.713v.353h-.652v1.984h-.413v-1.984h-.648Z" fill="#8c8c8c"/>
        <path id="Path_75" data-name="Path 75" d="M82.888,176.111h-.007l-.674,1.847h-.342l-.668-1.847H81.19v1.847h-.413v-2.337h.635l.624,1.716.636-1.716H83.3v2.337h-.413Z" fill="#8c8c8c"/>
      </g>
    </g>
  </g>
</svg>
