<svg xmlns="http://www.w3.org/2000/svg" width="40" height="40" viewBox="0 0 40 40">
  <path id="Shape_12_copy" data-name="Shape 12 copy" d="M1312.771,217.424v-7.808c0-4.183-2.234-6.13-5.21-6.13a4.491,4.491,0,0,0-4.079,2.25v-1.929h-4.527c.06,1.278,0,13.618,0,13.618h4.527v-7.605a3.073,3.073,0,0,1,.149-1.1,2.475,2.475,0,0,1,2.321-1.656c1.639,0,2.294,1.249,2.294,3.079v7.286h4.526Zm-18.585-15.476a2.522,2.522,0,1,0-.029,0ZM1301.547,228a20,20,0,1,1,20-20A20,20,0,0,1,1301.547,228Zm-5.1-10.576V203.806h-4.526v13.618Z" transform="translate(-1281.547 -187.999)" fill="#3a3a3a"/>
</svg>
