<svg id="Inteligentny_obiekt_wektorowy" data-name="Inteligentny obiekt wektorowy" xmlns="http://www.w3.org/2000/svg" xmlns:xlink="http://www.w3.org/1999/xlink" width="98" height="88" viewBox="0 0 98 88">
  <defs>
    <clipPath id="clip-path">
      <rect id="Rectangle_26" data-name="Rectangle 26" width="98" height="88" fill="none"/>
    </clipPath>
  </defs>
  <g id="Group_10" data-name="Group 10">
    <g id="Group_9" data-name="Group 9" clip-path="url(#clip-path)">
      <path id="Path_43" data-name="Path 43" d="M8.585,81.555V75.741L23.179,59.533a4.661,4.661,0,0,0,6.162-.145l11.29,8.539a4.785,4.785,0,0,0,9.468-.87,4.116,4.116,0,0,0-.1-.886L62.521,52.138a4.973,4.973,0,0,0,1.949.419,4.762,4.762,0,0,0,3.081-1.16l11.7,10.488a4.951,4.951,0,0,0-.416,1.949,4.863,4.863,0,1,0,2.62-4.286l-12.2-11a4.673,4.673,0,0,0,0-.821A4.791,4.791,0,1,0,60.222,49.9L48.278,63.287A4.715,4.715,0,0,0,41.3,64.43L30.939,56.52a3.686,3.686,0,0,0,0-.741,4.79,4.79,0,1,0-9.58,0,4.109,4.109,0,0,0,.094.886L8.585,70.939V53.217L23.993,39.088a4.686,4.686,0,0,0,6.945-4.253,4.319,4.319,0,0,0-.1-.9L42.9,20.336a4.694,4.694,0,0,0,.814,0,4.768,4.768,0,0,0,3.417-1.45L59.9,23.171a4.783,4.783,0,0,0,5.944,3.279,4.833,4.833,0,0,0,3.412-5.18l11.177-7.057a4.76,4.76,0,0,0,6.764-.38,4.864,4.864,0,0,0-.377-6.825,4.761,4.761,0,0,0-6.764.381,4.863,4.863,0,0,0-1.22,3.281,5.06,5.06,0,0,0,0,.676L67.663,18.4a4.762,4.762,0,0,0-6.769.3,4.842,4.842,0,0,0-.784,1.169L48.5,15.938a3.807,3.807,0,0,0,0-.435,4.791,4.791,0,1,0-9.581-.063,4.871,4.871,0,0,0,1.151,3.173L29.1,31.066A4.667,4.667,0,0,0,26.148,30a4.81,4.81,0,0,0-4.789,4.833,4.7,4.7,0,0,0,.43,1.965L8.585,48.916V1H5.391V4.226H2.2V7.448H5.391V23.559H2.2V26.78H5.391V42.89H2.2v3.222H5.391V62.223H2.2v3.222H5.391V83.166a1.6,1.6,0,0,0,1.6,1.611H24.551V88h3.194V84.777H43.712V88h3.194V84.777H62.872V88h3.194V84.777H82.033V88h3.194V84.777H98V81.555ZM83.629,62.223a1.611,1.611,0,1,1-1.6,1.612,1.6,1.6,0,0,1,1.6-1.612M64.47,46.112a1.611,1.611,0,1,1-1.6,1.612,1.6,1.6,0,0,1,1.6-1.612M45.309,65.445a1.611,1.611,0,1,1-1.6,1.612,1.6,1.6,0,0,1,1.6-1.612M26.148,54.168a1.611,1.611,0,1,1-1.6,1.611,1.6,1.6,0,0,1,1.6-1.611M83.629,9.059a1.611,1.611,0,1,1-1.6,1.611,1.6,1.6,0,0,1,1.6-1.611M64.47,20.336a1.611,1.611,0,1,1-1.6,1.611,1.6,1.6,0,0,1,1.6-1.611M43.712,13.892a1.611,1.611,0,1,1-1.6,1.611,1.6,1.6,0,0,1,1.6-1.611M26.148,33.224a1.611,1.611,0,1,1-1.6,1.611,1.6,1.6,0,0,1,1.6-1.611" fill="#fff"/>
      <rect id="Rectangle_21" data-name="Rectangle 21" width="10.903" height="16.956" fill="#e1561b"/>
      <rect id="Rectangle_22" data-name="Rectangle 22" width="10.903" height="16.956" transform="translate(0 16.956)" fill="#e6781f"/>
      <rect id="Rectangle_23" data-name="Rectangle 23" width="10.903" height="16.955" transform="translate(0 33.911)" fill="#ea9124"/>
      <rect id="Rectangle_24" data-name="Rectangle 24" width="10.903" height="16.956" transform="translate(0 50.867)" fill="#ea9124"/>
      <rect id="Rectangle_25" data-name="Rectangle 25" width="10.903" height="16.956" transform="translate(0 67.822)" fill="#eeaa28"/>
    </g>
  </g>
</svg>
