<svg xmlns="http://www.w3.org/2000/svg" width="164.729" height="162.631" viewBox="0 0 164.729 162.631">
  <g id="Group_22" data-name="Group 22" transform="translate(-750.63 -1208.38)">
    <g id="Ellipse_3_copy" data-name="Ellipse 3 copy" transform="translate(750.63 1208.38)" fill="#fff" stroke="#3a3a3a" stroke-linejoin="round" stroke-width="5">
      <ellipse cx="75.16" cy="74.92" rx="75.16" ry="74.92" stroke="none"/>
      <ellipse cx="75.16" cy="74.92" rx="72.66" ry="72.42" fill="none"/>
    </g>
    <path id="Shape_5" data-name="Shape 5" d="M844.69,1273.084l-12.705,2.832.493-24.635a2.207,2.207,0,0,0-4.2-1.006l-19.875,41.742a2.223,2.223,0,0,0,1.048,2.956,2.2,2.2,0,0,0,1.374.173l12.109-2.7-.736,23.629a2.207,2.207,0,0,0,4.174,1.08l20.743-40.862a2.224,2.224,0,0,0-.909-3A2.2,2.2,0,0,0,844.69,1273.084Zm-17.77,33.192.537-16.545a2.214,2.214,0,0,0-2.155-2.271,2.176,2.176,0,0,0-.532.052l-10.453,2.307,13.544-28.393-.346,17.217a2.208,2.208,0,0,0,2.687,2.219l10.85-2.426Z" fill="#3a3a3a"/>
    <path id="Shape_7" data-name="Shape 7" d="M829.669,1341.711a55.06,55.06,0,0,1-38.675-16.945L769.8,1345.038a84.379,84.379,0,0,0,59.248,25.954Z" fill="#2295d1"/>
    <path id="Shape_7_copy" data-name="Shape 7 copy" d="M829.05,1370.992a84.389,84.389,0,0,0,60.293-23.441l-20.317-21.144a55.065,55.065,0,0,1-39.356,15.3Z" fill="#6d9a8d"/>
    <path id="Shape_7_copy_2" data-name="Shape 7 copy 2" d="M889.342,1347.549a83.969,83.969,0,0,0,26.016-59.106l-29.349-.618a54.825,54.825,0,0,1-16.985,38.583Z" fill="#aea259"/>
  </g>
</svg>
