<?xml version="1.0" encoding="UTF-8" standalone="no"?>
<svg
   xmlns:dc="http://purl.org/dc/elements/1.1/"
   xmlns:cc="http://creativecommons.org/ns#"
   xmlns:rdf="http://www.w3.org/1999/02/22-rdf-syntax-ns#"
   xmlns:svg="http://www.w3.org/2000/svg"
   xmlns="http://www.w3.org/2000/svg"
   viewBox="0 0 225.41306 195.55733"
   height="195.55733"
   width="225.41306"
   xml:space="preserve"
   id="svg2"
   version="1.1"><metadata
     id="metadata8"><rdf:RDF><cc:Work
         rdf:about=""><dc:format>image/svg+xml</dc:format><dc:type
           rdf:resource="http://purl.org/dc/dcmitype/StillImage" /><dc:title></dc:title></cc:Work></rdf:RDF></metadata><defs
     id="defs6"><clipPath
       id="clipPath18"
       clipPathUnits="userSpaceOnUse"><path
         id="path16"
         d="M 0,248 H 248 V 0 H 0 Z" /></clipPath><clipPath
       id="clipPath30"
       clipPathUnits="userSpaceOnUse"><path
         id="path28"
         d="M 0,248 H 248 V 0 H 0 Z" /></clipPath><clipPath
       id="clipPath42"
       clipPathUnits="userSpaceOnUse"><path
         id="path40"
         d="M 0,248 H 248 V 0 H 0 Z" /></clipPath><clipPath
       id="clipPath50"
       clipPathUnits="userSpaceOnUse"><path
         id="path48"
         d="M 22.8308,215.014 H 224.43 V 85.8331 H 22.8308 Z" /></clipPath><clipPath
       id="clipPath66"
       clipPathUnits="userSpaceOnUse"><path
         id="path64"
         d="M 0,248 H 248 V 0 H 0 Z" /></clipPath><clipPath
       id="clipPath74"
       clipPathUnits="userSpaceOnUse"><path
         id="path72"
         d="M 22.8308,206.728 H 224.43 V 65.2691 H 22.8308 Z" /></clipPath><clipPath
       id="clipPath90"
       clipPathUnits="userSpaceOnUse"><path
         id="path88"
         d="M 0,248 H 248 V 0 H 0 Z" /></clipPath></defs><g
     transform="matrix(1.3333333,0,0,-1.3333333,-51.559257,222.11068)"
     id="g10"><g
       transform="translate(-23.381356,4.7288135)"
       id="g12"><g
         clip-path="url(#clipPath18)"
         id="g14"><g
           transform="translate(85.4648,42.9854)"
           id="g20"><path
             id="path22"
             style="fill:#008fd3;fill-opacity:1;fill-rule:nonzero;stroke:none"
             d="m 0,0 h 4 6.545 4.003 4.233 v 0.007 h -1.99 l -1.486,22.277 -1.487,22.283 -1.487,22.284 -0.293,4.381 4.007,0.013 0.293,-4.394 1.487,-22.284 0.835,-12.512 8.754,10e-4 c 0,0 -0.493,5.333 -1.155,12.511 -0.623,6.759 -1.396,15.154 -2.049,22.284 0,0 -1.286,13.793 -1.368,15.145 -0.084,1.384 -1.926,7.139 -7.663,7.139 h -26.358 c -5.737,0 -7.579,-5.755 -7.663,-7.139 -0.081,-1.352 -1.367,-15.145 -1.367,-15.145 -0.653,-7.129 -1.426,-15.524 -2.049,-22.284 -0.662,-7.184 -1.156,-12.521 -1.156,-12.521 h 0.089 v 0.005 h 4 v -0.004 l 4.814,0.001 0.835,12.519 1.487,22.284 0.293,4.394 L -7.89,71.232 -8.182,66.851 -9.671,44.567 -11.16,22.284 -12.649,0.003 h -1.996 V 0 h 4.219 4.003 z m 49.931,65.442 -0.305,11.846 h 4.008 L 53.938,65.442 54.24,53.597 54.544,41.75 h 23.412 l 0.304,11.847 0.303,11.845 0.304,11.846 h 4.001 L 82.564,65.442 82.261,53.597 81.957,41.75 h 7.618 v 5.147 l 0.019,6.7 v 28.43 c 0,3.925 -3.183,7.108 -7.109,7.108 H 49.838 c -3.926,0 -7.108,-3.183 -7.108,-7.108 h 0.003 L 42.73,41.75 h 7.812 l -0.306,11.847 z m 89.032,-24.524 -4,0.006 v -0.002 l -6.68,0.021 -0.028,6.071 -0.099,20.551 -0.046,9.705 -4,-0.02 0.046,-9.685 0.099,-20.557 v -0.001 l 0.052,-11.025 c -0.018,-4.039 3.254,-7.338 7.292,-7.356 h 0.032 c 1.944,0 3.774,0.753 5.156,2.122 1.39,1.378 2.159,3.214 2.168,5.176 z M 138.965,0 h -4.456 -4 -5.563 -4.004 -12.231 l 11.238,40.432 -1.143,6.567 -6.562,-4.151 -6.999,12.911 10.23,4.97 c 0,0 -2.997,10.808 -2.208,16.093 0.861,5.761 6.18,12.304 12.025,12.304 l 6.718,-0.022 c 4.105,-0.268 6.955,-3.327 6.955,-7.539 z" /></g></g></g><g
       transform="translate(-23.381356,4.7288135)"
       id="g24"><g
         clip-path="url(#clipPath30)"
         id="g26"><g
           transform="translate(139.0986,120.2734)"
           id="g32"><path
             id="path34"
             style="fill:#f0ab00;fill-opacity:1;fill-rule:nonzero;stroke:none"
             d="m 0,0 h 25.233 4.001 6.707 0.019 v 4.739 c 0,3.925 -3.183,7.108 -7.108,7.108 h -7.769 -4 -20.879 c -3.926,0 -7.107,-3.183 -7.107,-7.108 H -10.9 L -10.903,0 h 6.895 z m 78.376,11.854 -6.718,0.021 c -5.845,0 -11.164,-6.543 -12.025,-12.303 -0.366,-2.453 0.076,-6.095 0.663,-9.295 h 10.226 l -0.045,9.685 4,0.019 0.045,-9.704 h 10.81 V 4.315 c 0,4.211 -2.851,7.27 -6.956,7.539 M -65.53,-6.043 l 4.007,-0.013 -0.293,-4.382 h 20.513 l -0.293,4.382 4.008,0.013 0.293,-4.395 h 7.871 c 0,0 -1.286,13.794 -1.368,15.146 -0.083,1.384 -1.926,7.139 -7.663,7.139 h -26.358 c -5.737,0 -7.579,-5.755 -7.663,-7.139 -0.081,-1.352 -1.367,-15.146 -1.367,-15.146 h 8.02 z" /></g></g></g><g
       transform="translate(-23.381356,4.7288135)"
       id="g36"><g
         clip-path="url(#clipPath42)"
         id="g38"><g
           id="g44"><g
             id="g46" /><g
             id="g58"><g
               style="opacity:0.69999701"
               id="g56"
               clip-path="url(#clipPath50)"><g
                 id="g54"
                 transform="translate(75.7935,87.5527)"><path
                   id="path52"
                   style="fill:#f0ab00;fill-opacity:1;fill-rule:nonzero;stroke:none"
                   d="M 0,0 H 23.489 L 22.002,22.283 H 1.489 Z m -2.518,22.283 h -8.02 C -11.191,14.855 -11.964,6.809 -12.587,0 h 8.583 z M 27.497,0 h 8.434 c -0.623,6.809 -1.396,14.855 -2.05,22.283 H 26.01 Z m 31.8,32.721 H 52.402 52.383 V 20.875 h 7.219 z m 4.312,-11.846 h 24.626 l 0.304,11.846 H 63.305 Z m 28.627,0 h 7.011 V 32.721 H 92.54 Z m 45.69,-18.429 10.71,0.018 h 0.001 v 20.534 h -10.809 z m -4,-0.006 -0.098,20.558 h -10.227 c 0.677,-3.694 1.545,-6.836 1.545,-6.836 l -10.229,-4.971 6.999,-12.911 6.561,4.152 z" /></g></g></g></g></g></g><g
       transform="translate(-23.381356,4.7288135)"
       id="g60"><g
         clip-path="url(#clipPath66)"
         id="g62"><g
           id="g68"><g
             id="g70" /><g
             id="g82"><g
               style="opacity:0.39999402"
               id="g80"
               clip-path="url(#clipPath74)"><g
                 id="g78"
                 transform="translate(104.125,75.04)"><path
                   id="path76"
                   style="fill:#f0ab00;fill-opacity:1;fill-rule:nonzero;stroke:none"
                   d="m 0,0 8.753,0.001 c 0,0 -0.492,5.084 -1.154,12.512 h -8.434 z m -37.985,-0.004 v -0.004 l 4.814,0.001 0.835,12.52 h -8.582 c -0.663,-7.428 -1.156,-12.522 -1.156,-12.522 h 0.089 v 0.005 z m 9.653,12.517 -1.488,-22.284 H -3.355 L -4.842,12.513 Z M 35.58,21.542 H 59.6 l 0.303,11.846 H 35.277 Z m 28.021,0 h 7.314 V 33.388 H 63.904 Z M 24.052,33.388 V 21.542 h 7.524 l -0.305,11.846 z m 85.571,-24.499 6.68,-0.022 v 0.002 l 4,-0.006 -0.008,-4.994 c -0.009,-1.962 -0.778,-3.798 -2.168,-5.176 -1.382,-1.369 -3.212,-2.122 -5.156,-2.122 h -0.033 c -4.038,0.018 -7.309,3.318 -7.292,7.357 l -0.051,11.024 -5.449,-0.008 1.143,-6.529 -5.05,-18.169 h 24.066 v 24.731 l -10.71,-0.018 z" /></g></g></g></g></g></g><g
       transform="translate(-23.381356,4.7288135)"
       id="g84"><g
         clip-path="url(#clipPath90)"
         id="g86"><g
           transform="translate(40.6816,27.3662)"
           id="g92"><path
             id="path94"
             style="fill:#000000;fill-opacity:1;fill-rule:nonzero;stroke:none"
             d="m 119.5,123.819 -0.003,0.105 c -0.19,3.643 -2.721,10.535 -10.936,10.535 -3.022,0 -5.476,-0.938 -7.295,-2.79 -3.09,-3.143 -3.047,-7.764 -3.044,-7.925 v -8.159 h 2.549 c 1.13,-5.855 7.206,-7.475 10.569,-7.475 v 4 c -0.276,0 -6.752,0.063 -6.752,5.475 v 2 h -2.366 v 4.193 c -10e-4,0.032 0,3.158 1.896,5.087 1.054,1.072 2.507,1.594 4.443,1.594 6.228,0 6.878,-5.854 6.939,-6.703 v -19.002 h 4 z m 66.515,-13.724 c -2.655,0.947 -4.455,3.449 -4.455,6.545 0,1.261 -1.554,2.704 -2.189,2.704 h -2.403 v -10.561 h 6.592 c 1.574,0 2.141,0.695 2.455,1.312 m 4.414,3.591 v -2 c 0,-2.775 -1.829,-6.903 -6.869,-6.903 h -10.592 v 3 15.561 0.441 c -0.061,0.849 -0.711,6.703 -6.94,6.703 -1.935,0 -3.387,-0.522 -4.442,-1.594 -1.897,-1.93 -1.897,-5.056 -1.896,-5.087 v -4.193 h 2.367 v -2 c 0,-5.273 6.066,-5.47 6.757,-5.475 l -0.006,-4 c -3.364,0 -9.438,1.62 -10.568,7.475 h -2.55 v 8.159 c -0.003,0.161 -0.046,4.781 3.043,7.925 1.82,1.851 4.274,2.79 7.295,2.79 8.216,0 10.746,-6.892 10.937,-10.535 l 0.003,-0.105 v -0.504 h 2.403 c 3.008,0 6.189,-3.446 6.189,-6.704 0,-1.471 0.886,-2.954 2.869,-2.954 z m -10.683,-57.145 -0.008,-4.986 c -0.008,-1.828 -1.498,-3.31 -3.324,-3.31 h -0.015 c -0.887,0.004 -1.72,0.354 -2.345,0.984 -0.626,0.63 -0.968,1.467 -0.964,2.374 l -0.024,4.96 -0.028,6.07 -0.099,20.552 -0.045,9.704 -4,-0.02 0.045,-9.684 0.099,-20.558 v -0.001 l 0.052,-11.024 c -0.018,-4.039 3.254,-7.339 7.292,-7.357 h 0.032 c 1.944,0 3.774,0.753 5.156,2.122 1.39,1.378 2.159,3.214 2.168,5.176 l 0.008,4.994 -4,0.006 z m -4.454,-55.84 h -4.995 l -0.568,14.918 h -4.003 l 0.619,-16.252 -9.209,-11.547 h 22.156 v 4 h -13.85 l 3.892,4.881 h 9.958 v 18.918 h -4 z m -141.669,37.202 1.489,22.284 1.489,22.283 0.293,4.382 -4.007,0.012 -0.293,-4.394 -1.487,-22.283 -0.835,-12.52 -0.45,-6.748 c -1.91,0.633 -4.362,2.303 -4.364,6.747 v 0.004 h -4 v -0.005 c 0.002,-7.564 5.007,-9.99 8.096,-10.768 L 28.125,15.622 h 2.014 1.995 z m 38.585,9.767 h -4 c 0,-4.357 -2.413,-6.05 -4.317,-6.712 l -0.448,6.716 -0.835,12.513 -1.486,22.283 -0.293,4.394 -4.008,-0.012 0.293,-4.382 1.487,-22.283 1.487,-22.284 1.486,-22.277 h 1.99 2.021 l -1.424,21.283 c 3.094,0.791 8.047,3.233 8.047,10.761 m 36.728,-50.38 h -9.159 l -4.362,-5.47 h 13.521 z m 17.804,60.079 -0.166,-6.509 c 1.797,0.783 3.802,2.537 3.802,6.509 h 4 c 0,-7.418 -4.81,-9.896 -7.91,-10.723 L 125.201,-2.71 h -12.265 v -5.47 h 17.673 v -4 H 87.108 l 9.688,12.148 -1.193,46.607 c -3.082,0.753 -8.186,3.152 -8.186,10.794 h 4 c 0,-4.227 2.219,-5.948 4.079,-6.651 l -0.171,6.651 -0.305,11.847 -0.306,11.846 -0.305,11.845 h 4.008 L 98.721,81.062 99.023,69.216 99.327,57.369 100.764,1.29 h 8.172 v 46.94 h 4 V 1.29 h 8.367 l 1.436,56.079 0.304,11.847 0.304,11.846 0.303,11.845 h 4.001 l -0.303,-11.845 -0.304,-11.846 z m 26.001,-1.211 4.286,2.309 -1.906,3.516 -4.271,-2.3 c -1.616,-0.863 -3.636,-0.252 -4.5,1.364 -0.419,0.783 -0.508,1.682 -0.25,2.532 0.257,0.85 0.831,1.548 1.633,1.978 l 4.201,2.306 -1.908,3.516 -4.199,-2.306 c -1.725,-0.923 -2.988,-2.462 -3.556,-4.334 -0.567,-1.873 -0.372,-3.853 0.551,-5.579 1.319,-2.464 3.854,-3.868 6.472,-3.868 1.166,0 2.349,0.278 3.447,0.866 M 33.172,108.754 h 6.592 v 10.561 h -2.403 c -0.635,0 -2.189,-1.443 -2.189,-2.704 0,-3.106 -1.813,-5.614 -4.481,-6.554 0.373,-0.694 1.096,-1.303 2.481,-1.303 m 27.87,14.956 v -8.125 h -2.549 c -1.13,-5.855 -7.205,-7.475 -10.569,-7.475 l -0.007,4 c 0.692,0.005 6.759,0.203 6.759,5.475 v 2 h 2.366 v 4.159 c 0,0.057 0.002,3.21 -1.913,5.139 -1.052,1.06 -2.501,1.576 -4.425,1.576 -6.31,0 -6.896,-6.066 -6.94,-6.7 v -0.444 -15.561 -3 H 33.172 c -5.039,0 -6.868,4.128 -6.868,6.903 v 2 h 2 c 1.982,0 2.868,1.484 2.868,2.954 0,3.258 3.181,6.704 6.189,6.704 h 2.406 v 0.609 c 0.191,3.643 2.721,10.535 10.937,10.535 3.021,0 5.476,-0.938 7.296,-2.79 3.089,-3.144 3.045,-7.764 3.042,-7.959 M 55.9,-2.71 H 48.783 V -8.18 H 61.529 Z M 58.743,0.105 71.385,-12.18 H 27.109 v 4 h 17.674 v 5.47 H 35.008 L 34.357,15.619 H 38.36 L 38.865,1.29 h 5.918 v 14.329 h 4 V 1.29 h 6 l 0.545,14.329 h 4.004 z" /></g></g></g></g></svg>