<svg xmlns="http://www.w3.org/2000/svg" xmlns:xlink="http://www.w3.org/1999/xlink" width="86" height="93" viewBox="0 0 86 93">
  <defs>
    <clipPath id="clip-path">
      <rect id="Rectangle_32" data-name="Rectangle 32" width="86" height="93" transform="translate(0 0.001)" fill="none"/>
    </clipPath>
  </defs>
  <g id="Inteligentny_obiekt_wektorowy" data-name="Inteligentny obiekt wektorowy" transform="translate(0 -0.001)">
    <g id="Group_12" data-name="Group 12">
      <g id="Group_11" data-name="Group 11" clip-path="url(#clip-path)">
        <path id="Path_44" data-name="Path 44" d="M29.132,9.976a1.67,1.67,0,1,0,1.683,1.67,1.678,1.678,0,0,0-1.683-1.67" fill="#fff"/>
        <path id="Path_45" data-name="Path 45" d="M19.031,3.3a1.67,1.67,0,1,0,1.686,1.67A1.676,1.676,0,0,0,19.031,3.3" fill="#fff"/>
        <path id="Path_46" data-name="Path 46" d="M38.179,65.389H26.971A1.86,1.86,0,0,0,25.1,67.241v7.971a1.859,1.859,0,0,0,1.867,1.852H38.179a1.859,1.859,0,0,0,1.867-1.852V67.241a1.86,1.86,0,0,0-1.867-1.852m-1.87,7.971H28.838V69.093h7.471Z" fill="#fff"/>
        <path id="Path_47" data-name="Path 47" d="M57.421,65.389H45.649a1.862,1.862,0,0,0-1.867,1.852v7.971a1.86,1.86,0,0,0,1.867,1.852H57.421a1.859,1.859,0,0,0,1.867-1.852V67.241a1.86,1.86,0,0,0-1.867-1.852m-1.87,7.971h-8.03V69.093h8.03Z" fill="#fff"/>
        <path id="Path_48" data-name="Path 48" d="M76.1,65.389h-11.2a1.859,1.859,0,0,0-1.87,1.852v7.971a1.858,1.858,0,0,0,1.87,1.852H76.1a1.861,1.861,0,0,0,1.87-1.852V67.241a1.863,1.863,0,0,0-1.87-1.852m-1.867,7.971H66.758V69.093h7.473Z" fill="#fff"/>
        <path id="Path_49" data-name="Path 49" d="M35.864,0h-.022a1.676,1.676,0,0,0-1.663,1.689,1.538,1.538,0,0,1-.455,1.1A1.747,1.747,0,0,1,32.5,3.3H25.766a1.67,1.67,0,1,0,0,3.339H32.5a5.149,5.149,0,0,0,3.62-1.5A4.831,4.831,0,0,0,37.547,1.65,1.679,1.679,0,0,0,35.864,0" fill="#fff"/>
        <path id="Path_50" data-name="Path 50" d="M12.3,3.3h-.333a8.394,8.394,0,0,0-8.418,8.348,1.683,1.683,0,0,0,3.366,0,5.035,5.035,0,0,1,5.052-5.009H12.3a1.67,1.67,0,1,0,0-3.339" fill="#fff"/>
        <path id="Path_51" data-name="Path 51" d="M39.208,6.659a1.677,1.677,0,0,0-1.663,1.689,1.5,1.5,0,0,1-.46,1.1,1.733,1.733,0,0,1-1.226.506,1.67,1.67,0,1,0,0,3.339,5.141,5.141,0,0,0,3.622-1.5,4.86,4.86,0,0,0,1.432-3.487,1.674,1.674,0,0,0-1.705-1.65" fill="#fff"/>
        <path id="Path_52" data-name="Path 52" d="M22.4,9.976H17.012a5.034,5.034,0,0,0-5.047,5.009,1.682,1.682,0,0,0,3.364,0,1.679,1.679,0,0,1,1.683-1.67H22.4a1.67,1.67,0,1,0,0-3.339" fill="#fff"/>
        <rect id="Rectangle_27" data-name="Rectangle 27" width="21.368" height="72.393" transform="translate(0 20.187)" fill="#951681"/>
        <rect id="Rectangle_28" data-name="Rectangle 28" width="21.368" height="18.202" transform="translate(0 20.189)" fill="#eeaa28"/>
        <rect id="Rectangle_29" data-name="Rectangle 29" width="21.368" height="18.204" transform="translate(0 38.392)" fill="#d37e42"/>
        <rect id="Rectangle_30" data-name="Rectangle 30" width="21.368" height="18.203" transform="translate(0 56.596)" fill="#b8515d"/>
        <rect id="Rectangle_31" data-name="Rectangle 31" width="21.368" height="18.203" transform="translate(0 74.798)" fill="#951681"/>
        <path id="Path_53" data-name="Path 53" d="M85.023,42.823a1.879,1.879,0,0,0-1.909.074L63.024,55.859V44.428a1.852,1.852,0,0,0-.977-1.63,1.879,1.879,0,0,0-1.909.076L40.046,55.835V44.428a1.854,1.854,0,0,0-.984-1.635,1.887,1.887,0,0,0-1.919.094L21.368,53.321v4.451l14.941-9.884V59.255a1.862,1.862,0,0,0,.98,1.628,1.88,1.88,0,0,0,1.907-.076L59.288,47.844V59.275a1.852,1.852,0,0,0,.977,1.63,1.879,1.879,0,0,0,1.909-.076l20.09-12.962V89.293h-60.9v3.6H84.7A1.835,1.835,0,0,0,86,91.145v-46.7a1.847,1.847,0,0,0-.977-1.625" fill="#fff"/>
      </g>
    </g>
  </g>
</svg>
