<svg id="Inteligentny_obiekt_wektorowy" data-name="Inteligentny obiekt wektorowy" xmlns="http://www.w3.org/2000/svg" xmlns:xlink="http://www.w3.org/1999/xlink" width="120" height="101" viewBox="0 0 120 101">
  <defs>
    <clipPath id="clip-path">
      <rect id="Rectangle_7" data-name="Rectangle 7" width="120" height="101" fill="none"/>
    </clipPath>
  </defs>
  <g id="Group_2" data-name="Group 2">
    <g id="Group_1" data-name="Group 1" clip-path="url(#clip-path)">
      <path id="Path_1" data-name="Path 1" d="M118.292,97.368h-8.377V44.826A1.79,1.79,0,0,0,108.1,43.01H91.464a1.79,1.79,0,0,0-1.811,1.816V97.368H83.539V62.983a1.79,1.79,0,0,0-1.811-1.816H64.975a1.79,1.79,0,0,0-1.811,1.816V97.368H57.051V60.26a1.79,1.79,0,0,0-1.811-1.816H38.6a1.79,1.79,0,0,0-1.811,1.816V97.368H30.677V70.927a1.79,1.79,0,0,0-1.811-1.815H12.113A1.79,1.79,0,0,0,10.3,70.927V97.368H1.811a1.816,1.816,0,0,0,0,3.632H118.178a1.79,1.79,0,0,0,1.811-1.816,1.638,1.638,0,0,0-1.7-1.816m-91.351,0H13.924V72.743H26.941Zm26.488,0H40.412V62.076H53.429Zm26.375,0H66.786V64.8H79.8Zm26.488,0H93.276V46.642h13.017Z" fill="#fff"/>
      <rect id="Rectangle_1" data-name="Rectangle 1" width="20.395" height="57.99" transform="translate(89.52 43.01)" fill="#91b02b"/>
      <path id="Path_2" data-name="Path 2" d="M99.727,0A16.4,16.4,0,0,0,83.314,16.568,16.374,16.374,0,0,0,99.727,33.024a16.567,16.567,0,0,0,16.526-16.569A16.4,16.4,0,0,0,99.727,0m0,29.392a12.88,12.88,0,1,1,12.9-12.824,12.915,12.915,0,0,1-12.9,12.824" fill="#fff"/>
      <path id="Path_3" data-name="Path 3" d="M104.935,19.065a3,3,0,0,0-.341-.908,2.835,2.835,0,0,0-.453-.794c-.226-.228-.339-.454-.566-.681a2.025,2.025,0,0,0-.793-.568,2.842,2.842,0,0,0-.792-.454c-.34-.114-.565-.341-.906-.454a7.957,7.957,0,0,1-.905-.34.854.854,0,0,1-.452-.228c-.114-.113-.34-.113-.453-.226s-.34-.115-.453-.228l-.34-.341a.588.588,0,0,1-.226-.453.681.681,0,0,1-.114-.454V12.37c0-.115.114-.341.114-.454.112-.115.112-.341.226-.455l.34-.341a.863.863,0,0,1,.566-.226,1.01,1.01,0,0,1,.566-.115h.678a1.014,1.014,0,0,1,.567.115,4.965,4.965,0,0,1,.566.113c.112,0,.338.113.452.113.226,0,.339.113.453.113l.567.228.112-.681.226-1.815V8.511l-.453-.113c-.114,0-.34-.115-.453-.115s-.226-.113-.453-.113a4.9,4.9,0,0,0-.566-.114c-.226,0-.34-.113-.566-.113h-.114V5.787H98.256v2.27h-.114a4.007,4.007,0,0,0-1.019.455,2.043,2.043,0,0,0-.793.567,4.932,4.932,0,0,0-.679.8,2.282,2.282,0,0,0-.453.907c-.114.341-.226.681-.34,1.021a3.914,3.914,0,0,0-.112,1.136,2.526,2.526,0,0,0,.112.907,3.006,3.006,0,0,0,.34.908c.114.228.339.568.453.795.227.227.339.455.567.681a2.015,2.015,0,0,0,.792.568,2.805,2.805,0,0,0,.792.454,6.789,6.789,0,0,1,.906.455,7.753,7.753,0,0,1,.905.341.85.85,0,0,1,.453.226c.114.115.34.115.453.228s.226.226.34.226c.112.114.226.228.34.341s.112.227.226.455a4.941,4.941,0,0,1,.112.567v.568a.853.853,0,0,1-.226.454l-.34.341a1.555,1.555,0,0,1-.452.339c-.114.115-.34.115-.453.228a4.8,4.8,0,0,1-.566.113H98.028a4.879,4.879,0,0,1-.565-.113,1.585,1.585,0,0,1-.678-.228c-.228-.113-.454-.113-.68-.227-.114,0-.226-.112-.339-.112s-.227-.115-.34-.115l-.678-.34-.114.794-.226,2.043v.341l.34.113a1.5,1.5,0,0,1,1.018.115,2.094,2.094,0,0,0,.792.226c.228.113.566.113.906.227a2.463,2.463,0,0,0,.905.115h.226v2.268h2.717V24.852h.114a4.049,4.049,0,0,0,1.018-.453,4.015,4.015,0,0,0,.905-.568,4.946,4.946,0,0,0,.68-.794,6.261,6.261,0,0,0,.565-.908c.114-.341.226-.68.341-1.021a3.539,3.539,0,0,0,.112-1.134,2.534,2.534,0,0,0-.112-.908" fill="#fff"/>
      <path id="Path_4" data-name="Path 4" d="M91.8,35.18a1.924,1.924,0,0,0-2.6-.341L70.862,49.479,47.2,39.605a1.8,1.8,0,0,0-1.7.227L20.149,57.99a1.817,1.817,0,0,0-.453,2.5,1.648,1.648,0,0,0,1.471.793,1.823,1.823,0,0,0,1.019-.34L46.751,43.35l23.771,9.873A2.032,2.032,0,0,0,72.333,53l19.13-15.207a1.936,1.936,0,0,0,.34-2.61" fill="#fff"/>
      <rect id="Rectangle_2" data-name="Rectangle 2" width="20.395" height="11.598" transform="translate(89.52 43.01)" fill="#53b62c"/>
      <rect id="Rectangle_3" data-name="Rectangle 3" width="20.395" height="11.598" transform="translate(89.52 54.608)" fill="#91b02b"/>
      <rect id="Rectangle_4" data-name="Rectangle 4" width="20.395" height="11.598" transform="translate(89.52 66.205)" fill="#c0ad28"/>
      <rect id="Rectangle_5" data-name="Rectangle 5" width="20.395" height="11.599" transform="translate(89.52 77.803)" fill="#c2a528"/>
      <rect id="Rectangle_6" data-name="Rectangle 6" width="20.395" height="11.598" transform="translate(89.52 89.402)" fill="#b09722"/>
    </g>
  </g>
</svg>
