<svg id="Pictograms" xmlns="http://www.w3.org/2000/svg" viewBox="0 0 240 240"><defs><style>.cls-1{fill:#008fd3;}.cls-2,.cls-3,.cls-4{fill:#f0ab00;}.cls-2{opacity:0.4;}.cls-3{opacity:0.7;}</style></defs><title>281230-pictogram</title><path d="M28,28V212H212V28ZM208,208H32V32H208ZM78,116A38,38,0,1,0,40,78,38,38,0,0,0,78,116Zm29.24-55.33L79,75.67V44A34,34,0,0,1,107.24,60.67ZM75,44.14V82.33l34.07-18.1A34,34,0,1,1,75,44.14ZM200,40H124v76h76Zm-4,72h-8V88h-4v24h-8V76h-4v36h-8V57h-4v55h-8V84h-4v28h-8V68h-4v44h-8V44h68Z"/><polygon class="cls-1" points="160 168.5 120 124 79.5 134 40 169.5 40 200.5 79.5 200.5 120 200.5 160 200.5 200 200.5 200 134.5 160 168.5"/><polygon class="cls-2" points="79.5 200.5 79.5 134 120 124 120 200.5 79.5 200.5"/><polygon class="cls-3" points="120 200.5 120 124 160 168.5 160 200.5 120 200.5"/><polygon class="cls-4" points="160 200.5 160 168.5 200 134.5 200 200.5 160 200.5"/></svg>