<svg id="Inteligentny_obiekt_wektorowy" data-name="Inteligentny obiekt wektorowy" xmlns="http://www.w3.org/2000/svg" xmlns:xlink="http://www.w3.org/1999/xlink" width="102" height="95" viewBox="0 0 102 95">
  <defs>
    <clipPath id="clip-path">
      <rect id="Rectangle_20" data-name="Rectangle 20" width="102" height="95" fill="none"/>
    </clipPath>
  </defs>
  <g id="Group_8" data-name="Group 8">
    <g id="Group_7" data-name="Group 7" clip-path="url(#clip-path)">
      <path id="Path_20" data-name="Path 20" d="M91.55,79.556a6.258,6.258,0,0,0,1.1-3.543,6.389,6.389,0,0,0-12.778,0,6.258,6.258,0,0,0,1.1,3.543,6.344,6.344,0,0,0-3.91,3.873,6.366,6.366,0,0,0-1.481-.709,6.246,6.246,0,0,0,1.1-3.542,6.39,6.39,0,0,0-12.779,0,6.259,6.259,0,0,0,1.1,3.542,6.4,6.4,0,0,0-1.481.709,6.342,6.342,0,0,0-3.91-3.873,6.239,6.239,0,0,0,1.1-3.543,6.39,6.39,0,0,0-12.78,0,6.253,6.253,0,0,0,1.1,3.543,6.322,6.322,0,0,0-4.292,5.951v4.746a1.588,1.588,0,0,0,1.6,1.583H60.7v1.581A1.589,1.589,0,0,0,62.3,95H78.27a1.589,1.589,0,0,0,1.6-1.583V91.836H94.244a1.588,1.588,0,0,0,1.6-1.583V85.507a6.323,6.323,0,0,0-4.291-5.951M54.31,72.849a3.165,3.165,0,1,1-3.195,3.164,3.182,3.182,0,0,1,3.195-3.164M60.7,88.671H47.921V85.507a3.182,3.182,0,0,1,3.195-3.164H57.5a3.183,3.183,0,0,1,3.2,3.164Zm9.584-12.658a3.165,3.165,0,1,1-3.195,3.165,3.183,3.183,0,0,1,3.195-3.165m6.389,14.24v1.583H63.895V88.671a3.183,3.183,0,0,1,3.195-3.164h6.389a3.183,3.183,0,0,1,3.195,3.164Zm9.583-17.4a3.165,3.165,0,1,1-3.195,3.164,3.183,3.183,0,0,1,3.195-3.164m6.389,15.822H79.868V85.507a3.182,3.182,0,0,1,3.194-3.164h6.389a3.182,3.182,0,0,1,3.195,3.164Z" fill="#fff"/>
      <path id="Path_21" data-name="Path 21" d="M49.05,51.163l-7.987-7.912a1.6,1.6,0,0,0-1.129-.462H31.948V34.877a1.589,1.589,0,0,0-1.6-1.582H1.6A1.589,1.589,0,0,0,0,34.877V66.52A1.589,1.589,0,0,0,1.6,68.1H6.616a6.374,6.374,0,0,0,12.325,0H32.174a6.374,6.374,0,0,0,12.325,0h3.421a1.589,1.589,0,0,0,1.6-1.583V52.281a1.567,1.567,0,0,0-.468-1.118M3.195,36.459H28.752v17.4H3.195Zm9.584,33.226a3.164,3.164,0,1,1,3.195-3.164,3.183,3.183,0,0,1-3.195,3.164m25.558,0a3.164,3.164,0,1,1,3.195-3.164,3.183,3.183,0,0,1-3.195,3.164m7.987-4.746h-1.8a6.222,6.222,0,0,0-.22-.625c-.039-.1-.064-.205-.107-.305a6.38,6.38,0,0,0-.546-.994c-.046-.069-.1-.129-.156-.2a6.035,6.035,0,0,0-.566-.679c-.094-.1-.2-.18-.3-.27a6.266,6.266,0,0,0-.573-.469c-.118-.085-.24-.163-.364-.24a6.475,6.475,0,0,0-.641-.344c-.131-.062-.259-.124-.4-.178a6.4,6.4,0,0,0-.755-.233c-.124-.032-.243-.07-.369-.1a6.554,6.554,0,0,0-1.2-.118,6.469,6.469,0,0,0-1.2.12c-.127.025-.246.065-.369.1a6.245,6.245,0,0,0-.756.233c-.136.053-.265.115-.4.178a5.956,5.956,0,0,0-.641.345c-.124.077-.245.153-.364.239a6.422,6.422,0,0,0-.574.468c-.1.091-.2.174-.3.27a6.271,6.271,0,0,0-.565.68c-.05.068-.109.128-.157.2a6.234,6.234,0,0,0-.544.994c-.044.1-.069.2-.108.3a5.829,5.829,0,0,0-.22.625H18.964a6.225,6.225,0,0,0-.221-.625c-.039-.1-.063-.205-.107-.3a6.289,6.289,0,0,0-.545-.994c-.046-.069-.105-.13-.157-.2a6.191,6.191,0,0,0-.565-.68c-.094-.1-.2-.18-.3-.27A5.949,5.949,0,0,0,16.5,61.4c-.118-.086-.24-.164-.364-.239a5.993,5.993,0,0,0-.64-.345c-.131-.063-.26-.125-.4-.178a6.273,6.273,0,0,0-.755-.233c-.124-.031-.243-.07-.369-.1a6.037,6.037,0,0,0-2.393,0c-.127.025-.246.065-.368.1a6.169,6.169,0,0,0-.756.233c-.136.053-.266.115-.4.178a6.023,6.023,0,0,0-.641.345c-.124.077-.245.153-.363.239a6.315,6.315,0,0,0-.573.468c-.1.091-.2.174-.3.27a6.036,6.036,0,0,0-.565.68c-.05.068-.109.128-.156.2a6.186,6.186,0,0,0-.546.994c-.043.1-.068.2-.107.3a6.429,6.429,0,0,0-.219.624h-3.4V57.028H30.349a1.589,1.589,0,0,0,1.6-1.583V45.953h7.325l7.051,6.984Z" fill="#fff"/>
      <path id="Path_22" data-name="Path 22" d="M94.244.07H84.66a1.588,1.588,0,0,0-1.6,1.582V19.76l-9.583,5.933V20.637a1.581,1.581,0,0,0-.825-1.384,1.612,1.612,0,0,0-1.621.042L60.7,25.694V20.637a1.581,1.581,0,0,0-.825-1.384,1.612,1.612,0,0,0-1.621.042L45.475,27.206a1.582,1.582,0,0,0-.749,1.343V41.205a1.588,1.588,0,0,0,1.6,1.582H94.244a1.588,1.588,0,0,0,1.6-1.582V1.652A1.588,1.588,0,0,0,94.244.07M57.5,28.549V39.623H47.921v-10.2L57.5,23.493Zm12.78,0V39.623H60.7v-10.2l9.584-5.933Zm12.778-3.164V39.623H73.479v-10.2l9.583-5.933Zm9.584,14.239H86.257V26.967h6.389Zm0-15.822H86.257V3.233h6.389Z" fill="#fff"/>
      <rect id="Rectangle_12" data-name="Rectangle 12" width="3.195" height="4.747" transform="translate(63.895 31.712)" fill="#fff"/>
      <rect id="Rectangle_13" data-name="Rectangle 13" width="3.195" height="4.747" transform="translate(76.673 31.712)" fill="#fff"/>
      <rect id="Rectangle_14" data-name="Rectangle 14" width="3.195" height="4.747" transform="translate(51.115 31.712)" fill="#fff"/>
      <path id="Path_23" data-name="Path 23" d="M85.771,52.006c-.16,1-.365,2-.605,2.975l3.1.752c.261-1.056.481-2.143.657-3.225Z" fill="#fff"/>
      <path id="Path_24" data-name="Path 24" d="M86.257,45.952c0,1.019-.039,2.04-.121,3.036l3.186.253c.087-1.079.13-2.187.13-3.288Z" fill="#fff"/>
      <path id="Path_25" data-name="Path 25" d="M81.933,63.49c-.468.891-.98,1.779-1.526,2.634l2.7,1.683c.59-.928,1.147-1.888,1.653-2.857Z" fill="#fff"/>
      <path id="Path_26" data-name="Path 26" d="M84.32,57.9c-.321.958-.685,1.914-1.082,2.842l2.943,1.233c.429-1,.824-2.042,1.17-3.079Z" fill="#fff"/>
      <path id="Path_27" data-name="Path 27" d="M20.679,16.483c-.834.72-1.647,1.479-2.415,2.254l2.281,2.215c.709-.717,1.46-1.417,2.232-2.084Z" fill="#fff"/>
      <path id="Path_28" data-name="Path 28" d="M61.158,8.532l-1.017,3c.962.318,1.923.683,2.862,1.082l1.261-2.908c-1.021-.432-2.065-.827-3.105-1.174" fill="#fff"/>
      <path id="Path_29" data-name="Path 29" d="M26.021,12.575c-.932.575-1.857,1.2-2.75,1.847l1.9,2.546c.823-.6,1.676-1.177,2.536-1.705Z" fill="#fff"/>
      <path id="Path_30" data-name="Path 30" d="M12.2,26.539c-.556.923-1.09,1.9-1.585,2.893l2.867,1.4c.458-.92.948-1.818,1.46-2.669Z" fill="#fff"/>
      <path id="Path_31" data-name="Path 31" d="M16.036,21.176c-.715.846-1.4,1.723-2.027,2.606l2.608,1.829c.582-.818,1.213-1.626,1.869-2.408Z" fill="#fff"/>
      <path id="Path_32" data-name="Path 32" d="M48.1,6.4l-.013,3.164c1.026,0,2.057.049,3.064.133l.269-3.152c-1.09-.092-2.206-.141-3.32-.146" fill="#fff"/>
      <path id="Path_33" data-name="Path 33" d="M54.716,6.947l-.52,3.12c1.014.167,2.024.373,3,.616l.773-3.07c-1.062-.263-2.156-.488-3.254-.666" fill="#fff"/>
      <path id="Path_34" data-name="Path 34" d="M67.262,11.122l-1.492,2.8c.9.468,1.789.98,2.655,1.524l1.709-2.673c-.936-.59-1.9-1.144-2.872-1.652" fill="#fff"/>
      <path id="Path_35" data-name="Path 35" d="M44.784,6.512c-1.107.084-2.217.21-3.3.375l.49,3.127c1-.155,2.026-.27,3.048-.348Z" fill="#fff"/>
      <path id="Path_36" data-name="Path 36" d="M31.915,9.563c-1.014.421-2.027.89-3.01,1.391l1.463,2.812c.908-.464,1.843-.895,2.778-1.281Z" fill="#fff"/>
      <path id="Path_37" data-name="Path 37" d="M38.228,7.524c-1.069.251-2.146.554-3.2.894l.991,3.006c.972-.313,1.964-.592,2.948-.825Z" fill="#fff"/>
      <path id="Path_38" data-name="Path 38" d="M33.337,83.088l-1.126,2.96c1.033.386,2.1.736,3.157,1.036l.88-3.041c-.977-.279-1.956-.6-2.911-.954" fill="#fff"/>
      <path id="Path_39" data-name="Path 39" d="M27.8,80.5l-1.591,2.743c.961.546,1.952,1.058,2.946,1.522L30.518,81.9c-.918-.429-1.834-.9-2.719-1.4" fill="#fff"/>
      <path id="Path_40" data-name="Path 40" d="M39.227,84.761l-.631,3.1c1.086.216,2.188.391,3.279.522l.38-3.143c-1.007-.119-2.024-.281-3.029-.482" fill="#fff"/>
      <path id="Path_41" data-name="Path 41" d="M18.741,73.356,16.4,75.506c.591.633,1.206,1.248,1.837,1.844l2.2-2.292c-.583-.548-1.149-1.118-1.7-1.7" fill="#fff"/>
      <path id="Path_42" data-name="Path 42" d="M22.743,77.063l-2.009,2.46c.864.693,1.759,1.355,2.661,1.967L25.2,78.882c-.831-.568-1.66-1.179-2.459-1.82" fill="#fff"/>
      <rect id="Rectangle_15" data-name="Rectangle 15" width="19.069" height="42.857" transform="translate(82.931)" fill="#951681"/>
      <rect id="Rectangle_16" data-name="Rectangle 16" width="19.069" height="10.714" transform="translate(82.931)" fill="#eeaa28"/>
      <rect id="Rectangle_17" data-name="Rectangle 17" width="19.069" height="10.715" transform="translate(82.931 10.714)" fill="#d37e42"/>
      <rect id="Rectangle_18" data-name="Rectangle 18" width="19.069" height="10.714" transform="translate(82.931 21.428)" fill="#b8515d"/>
      <rect id="Rectangle_19" data-name="Rectangle 19" width="19.069" height="10.715" transform="translate(82.931 32.143)" fill="#951681"/>
    </g>
  </g>
</svg>
