<?xml version="1.0" encoding="UTF-8" standalone="no"?>
<svg
   xmlns:dc="http://purl.org/dc/elements/1.1/"
   xmlns:cc="http://creativecommons.org/ns#"
   xmlns:rdf="http://www.w3.org/1999/02/22-rdf-syntax-ns#"
   xmlns:svg="http://www.w3.org/2000/svg"
   xmlns="http://www.w3.org/2000/svg"
   viewBox="0 0 237.62532 164.24933"
   height="164.24933"
   width="237.62532"
   xml:space="preserve"
   id="svg2"
   version="1.1"><metadata
     id="metadata8"><rdf:RDF><cc:Work
         rdf:about=""><dc:format>image/svg+xml</dc:format><dc:type
           rdf:resource="http://purl.org/dc/dcmitype/StillImage" /><dc:title></dc:title></cc:Work></rdf:RDF></metadata><defs
     id="defs6"><clipPath
       id="clipPath18"
       clipPathUnits="userSpaceOnUse"><path
         id="path16"
         d="M 0,248 H 248 V 0 H 0 Z" /></clipPath><clipPath
       id="clipPath30"
       clipPathUnits="userSpaceOnUse"><path
         id="path28"
         d="M 0,248 H 248 V 0 H 0 Z" /></clipPath><clipPath
       id="clipPath42"
       clipPathUnits="userSpaceOnUse"><path
         id="path40"
         d="M 0,248 H 248 V 0 H 0 Z" /></clipPath><clipPath
       id="clipPath50"
       clipPathUnits="userSpaceOnUse"><path
         id="path48"
         d="m 122.161,133.518 h 77.686 v -16.023 h -77.686 z" /></clipPath><clipPath
       id="clipPath64"
       clipPathUnits="userSpaceOnUse"><path
         id="path62"
         d="M 0,248 H 248 V 0 H 0 Z" /></clipPath><clipPath
       id="clipPath72"
       clipPathUnits="userSpaceOnUse"><path
         id="path70"
         d="m 122.161,117.498 h 77.686 v -16.021 h -77.686 z" /></clipPath><clipPath
       id="clipPath86"
       clipPathUnits="userSpaceOnUse"><path
         id="path84"
         d="M 0,248 H 248 V 0 H 0 Z" /></clipPath></defs><g
     transform="matrix(1.3333333,0,0,-1.3333333,-41.041066,253.55399)"
     id="g10"><g
       id="g12"><g
         clip-path="url(#clipPath18)"
         id="g14"><g
           transform="translate(190.9131,149.5381)"
           id="g20"><path
             id="path22"
             style="fill:#008fd3;fill-opacity:1;fill-rule:nonzero;stroke:none"
             d="m 0,0 h -59.982 c -6.211,-0.657 -8.266,-6.252 -8.77,-9.099 v -38.968 h -11.863 v -16.011 h 43.074 c -1.669,1.469 -2.729,3.615 -2.729,6.012 0,4.422 3.586,8.009 8.01,8.009 h 6.865 V -64.078 H 8.934 V -10.2 C 8.83,-8.105 7.176,-0.759 0,0" /></g></g></g><g
       id="g24"><g
         clip-path="url(#clipPath30)"
         id="g26"><g
           transform="translate(190.9131,149.5381)"
           id="g32"><path
             id="path34"
             style="fill:#f0ab00;fill-opacity:1;fill-rule:nonzero;stroke:none"
             d="m 0,0 h -59.982 c -6.211,-0.657 -8.266,-6.252 -8.77,-9.099 V -16.02 H 8.934 v 5.82 C 8.83,-8.105 7.176,-0.759 0,0" /></g></g></g><g
       id="g36"><g
         clip-path="url(#clipPath42)"
         id="g38"><g
           id="g44"><g
             id="g46" /><g
             id="g56"><g
               style="opacity:0.69999701"
               id="g54"
               clip-path="url(#clipPath50)"><path
                 id="path52"
                 style="fill:#f0ab00;fill-opacity:1;fill-rule:nonzero;stroke:none"
                 d="m 199.847,133.518 h -77.686 v -16.022 h 77.686 z" /></g></g></g></g></g><g
       id="g58"><g
         clip-path="url(#clipPath64)"
         id="g60"><g
           id="g66"><g
             id="g68" /><g
             id="g78"><g
               style="opacity:0.39999402"
               id="g76"
               clip-path="url(#clipPath72)"><path
                 id="path74"
                 style="fill:#f0ab00;fill-opacity:1;fill-rule:nonzero;stroke:none"
                 d="m 199.847,117.498 h -77.686 v -16.021 h 77.686 z" /></g></g></g></g></g><g
       id="g80"><g
         clip-path="url(#clipPath86)"
         id="g82"><g
           transform="translate(61.9678,100.7295)"
           id="g88"><path
             id="path90"
             style="fill:#000000;fill-opacity:1;fill-rule:nonzero;stroke:none"
             d="M 0,0 7.401,50.053 H -4.577 L -11.979,0 Z m -13.443,17.434 5.415,36.619 H 12.036 L 6.621,17.434 H 44.336 V 79.229 H -27.187 V 17.434 Z M 33.459,-9.258 c 0,-3.314 2.695,-6.012 6.01,-6.012 h 4.865 v 12.022 h -4.865 c -3.315,0 -6.01,-2.696 -6.01,-6.01 m 57.217,0 c 0,-3.314 2.696,-6.012 6.01,-6.012 h 4.865 v 12.016 l -4.865,0.006 c -3.314,0 -6.01,-2.696 -6.01,-6.01 M -27.187,-19.27 v -10.481 h 174.219 v -4 H -31.187 V -15.27 H 14.584 V -4 H -31.18 v 4 h 15.159 l 1.986,13.434 H -31.187 V 83.229 H 48.336 V 13.434 H 6.029 L 4.043,0 h 14.541 v -15.27 h 12.899 c -1.264,1.677 -2.024,3.755 -2.024,6.012 0,5.52 4.49,10.01 10.01,10.01 h 8.865 V -15.27 h 26.613 v 39.196 l 4,0.002 V -15.27 H 88.7 c -1.264,1.677 -2.024,3.755 -2.024,6.012 0,5.52 4.49,10.01 10.01,10.01 h 0.345 V 11.393 L 83.992,48.811 87.77,50.129 101.031,12.07 V 0.751 l 18.1,-0.005 v 22.978 h 4 V -3.254 h -17.58 V -15.27 h 41.481 v -4 z M 107.76,76.008 V 48.809 h -4 v 27.199 l 0.006,0.011 c 0,5.192 -4.223,9.417 -9.412,9.417 -5.192,0 -9.416,-4.225 -9.416,-9.417 v -4.922 h 2.291 v -2 c 0,-3.93 3.195,-7.126 7.123,-7.126 v -4 c -5.452,0 -9.998,3.942 -10.944,9.126 h -2.47 v 8.922 c 0,7.398 6.018,13.417 13.416,13.417 7.395,0 13.412,-6.019 13.412,-13.417 z" /></g></g></g></g></svg>