<svg xmlns="http://www.w3.org/2000/svg" width="50" height="50" viewBox="0 0 50 50">
  <path id="Shape_8" data-name="Shape 8" d="M962.968,4990.943a25,25,0,1,1,25,25A24.982,24.982,0,0,1,962.968,4990.943Zm11.382-5.284v11.18a7.654,7.654,0,0,0,2.236,5.791,7.9,7.9,0,0,0,5.691,2.134h11.078a7.909,7.909,0,0,0,5.69-2.134,8.053,8.053,0,0,0,2.236-5.791v-11.18a7.5,7.5,0,0,0-7.826-7.928H982.277A7.521,7.521,0,0,0,974.35,4985.66Zm7.927,16.565a5.731,5.731,0,0,1-3.964-1.423,5.6,5.6,0,0,1-1.525-4.065v-11.18a4.935,4.935,0,0,1,5.387-5.385h11.179a5.437,5.437,0,0,1,4.064,1.524,5.719,5.719,0,0,1,1.423,3.962v11.18a5.2,5.2,0,0,1-1.523,3.962,5.56,5.56,0,0,1-3.964,1.423Zm-1.423-11.076a6.962,6.962,0,0,0,13.923,0,7.007,7.007,0,0,0-7.013-6.912A6.919,6.919,0,0,0,980.854,4991.149Zm12.5-7.217a1.626,1.626,0,1,0,1.625-1.627A1.6,1.6,0,0,0,993.354,4983.932ZM983.3,4991.15a4.467,4.467,0,1,1,4.467,4.468A4.468,4.468,0,0,1,983.3,4991.15Z" transform="translate(-962.968 -4965.944)" fill="#fff"/>
</svg>
