<svg id="Pictograms" xmlns="http://www.w3.org/2000/svg" viewBox="0 0 240 240"><defs><style>.cls-1{fill:#008fd3;}.cls-2,.cls-3,.cls-4{fill:#f0ab00;}.cls-3{opacity:0.7;}.cls-4{opacity:0.4;}</style></defs><title>281599-pictogram</title><rect class="cls-1" x="30.73" y="30" width="180" height="180"/><rect class="cls-2" x="165.73" y="30" width="45" height="180"/><rect class="cls-3" x="120.73" y="30" width="45" height="180"/><rect class="cls-4" x="75.73" y="30" width="45" height="180"/><path d="M136.92,70.2a7.51,7.51,0,1,0,7.23,9.5h46.26a7.51,7.51,0,1,0,0-4H144.15A7.51,7.51,0,0,0,136.92,70.2Zm0,11a3.5,3.5,0,1,1,3.5-3.5A3.51,3.51,0,0,1,136.92,81.21Zm60.71-7a3.5,3.5,0,1,1-3.5,3.51A3.51,3.51,0,0,1,197.64,74.2Zm-99.56.45V113l26,26a7.46,7.46,0,1,0,3.42-2.22l-25.4-25.42V76.31L132,46.41a7.49,7.49,0,1,0-3-2.62Zm31.6,65.81a3.5,3.5,0,1,1-3.51,3.5A3.51,3.51,0,0,1,129.68,140.46Zm5.51-104.33a3.5,3.5,0,1,1-3.51,3.5A3.51,3.51,0,0,1,135.18,36.13ZM116.72,74.65V113l26.62,26.62a7.51,7.51,0,1,0,3.1-2.54l-25.72-25.73V76.31l29.86-29.86a7.49,7.49,0,1,0-3.06-2.58ZM147,141.49a3.5,3.5,0,0,1,6,2.47,3.52,3.52,0,0,1-3.51,3.51,3.5,3.5,0,0,1-2.47-6Zm4.23-104.33a3.49,3.49,0,1,1-1,2.48A3.5,3.5,0,0,1,151.23,37.16Zm40.4,157.78V135.73a7.5,7.5,0,1,0-4,0v60.87L201.05,210h5.64l-.75-.75Zm-4.47-64a3.5,3.5,0,1,1,2.47,1A3.5,3.5,0,0,1,187.16,131Zm-14.17,64V135.73a7.5,7.5,0,1,0-4,0v60.87L182.41,210h5.65l-.75-.75Zm-4.47-64a3.49,3.49,0,1,1,2.47,1A3.5,3.5,0,0,1,168.52,131ZM60.86,166.68a7.49,7.49,0,0,0-6.15,11.77L36.94,196.22h-6.2v4h7.86L57.79,181a7.5,7.5,0,1,0,3.08-14.33Zm0,11a3.5,3.5,0,1,1,3.51-3.51A3.48,3.48,0,0,1,60.86,177.69Zm90.36.77A7.5,7.5,0,1,0,144,169H96.32L83.25,155.88H30.73v4H81.6L94.67,173H144A7.51,7.51,0,0,0,151.22,178.46Zm0-11a3.5,3.5,0,1,1-3.51,3.5A3.5,3.5,0,0,1,151.22,167.46ZM137,196.27a7.45,7.45,0,1,0-3.42,2.22L145.13,210h5.64l-.75-.75Zm-5.62-1.45a3.5,3.5,0,1,1,3.51-3.51A3.51,3.51,0,0,1,131.42,194.82Zm25.43,1.45a7.45,7.45,0,1,0-3.42,2.22L164.93,210h5.64l-.75-.75Zm-5.62-1.45a3.5,3.5,0,1,1,3.51-3.51A3.51,3.51,0,0,1,151.23,194.82Zm-34,1.45a7.45,7.45,0,1,0-3.42,2.22L125.32,210H131l-.75-.75Zm-5.62-1.45a3.5,3.5,0,1,1,3.51-3.51A3.51,3.51,0,0,1,111.61,194.82ZM71.87,141.51a7.5,7.5,0,1,0-7.32-9.14H30.73v4h34A7.52,7.52,0,0,0,71.87,141.51Zm0-11a3.5,3.5,0,1,1-3.51,3.5A3.5,3.5,0,0,1,71.87,130.51Zm-27-73.1a7.5,7.5,0,0,0,2-14.73V30h-4V42.67a7.5,7.5,0,0,0,2,14.73Zm-2.47-10a3.5,3.5,0,1,1-1,2.47A3.48,3.48,0,0,1,42.4,47.43Zm8.55,71.67A7.51,7.51,0,1,0,43.63,110H30.73v4H43.83A7.5,7.5,0,0,0,50.94,119.1Zm0-11a3.5,3.5,0,1,1-3.51,3.51A3.51,3.51,0,0,1,50.94,108.09ZM69.52,57.41a7.5,7.5,0,0,0,2-14.73V30h-4V42.67a7.5,7.5,0,0,0,2,14.73Zm0-11A3.5,3.5,0,1,1,66,49.9,3.51,3.51,0,0,1,69.52,46.4ZM86.89,192.08a7.5,7.5,0,0,0-2,14.72V210h4v-3.2a7.5,7.5,0,0,0-2-14.72Zm0,11a3.5,3.5,0,1,1,3.51-3.5A3.5,3.5,0,0,1,86.89,203.08ZM210,41.69l-8.07,8.07a7.54,7.54,0,1,0,2.92,2.72l5.89-5.9V40.94ZM198.46,59.92a3.5,3.5,0,1,1,3.5-3.51A3.52,3.52,0,0,1,198.46,59.92ZM79.44,113l25.4,25.4a7.6,7.6,0,1,0,3.79-1.85l-25.19-25.2V84.49H30.73v4H79.44Zm28,28.46c.08-.08.18-.15.27-.22l.41.41.75-.75.4-.39a3.5,3.5,0,1,1-1.82,1ZM94.62,57.41A7.49,7.49,0,0,0,101,46l16-16h-5.64L98.07,43.25a7.44,7.44,0,0,0-3.46-.85,7.51,7.51,0,0,0,0,15Zm-2.47-10a3.5,3.5,0,1,1-1,2.47A3.48,3.48,0,0,1,92.15,47.43ZM60.86,192.08a7.5,7.5,0,0,0-6.23,11.66L48.37,210H54l3.65-3.65a7.42,7.42,0,0,0,3.21.73,7.5,7.5,0,0,0,0-15Zm0,11a3.5,3.5,0,1,1,3.51-3.5A3.51,3.51,0,0,1,60.86,203.08ZM202.73,98.6H144.15a7.5,7.5,0,1,0,0,4h60.23l6.35-6.35V90.59l-.75.75Zm-65.81,5.49a3.5,3.5,0,1,1,3.5-3.5A3.51,3.51,0,0,1,136.92,104.08ZM79.66,76.33a7.5,7.5,0,1,0-7.32-9.14H30.73v4H72.55A7.52,7.52,0,0,0,79.66,76.33Zm0-11a3.51,3.51,0,1,1-3.5,3.5A3.51,3.51,0,0,1,79.66,65.32ZM157.21,60A7.5,7.5,0,1,0,171.09,56l26-26h-5.65L168.16,53.31a7.49,7.49,0,0,0-11,6.66Zm7.5-3.5a3.5,3.5,0,1,1-3.51,3.5A3.48,3.48,0,0,1,164.72,56.47Z"/></svg>