<svg xmlns="http://www.w3.org/2000/svg" viewBox="0 0 248 248"><defs><style>.cls-1{fill:#008fd3;}.cls-2,.cls-3,.cls-4{fill:#f0ab00;}.cls-3{opacity:0.7;}.cls-4{opacity:0.4;}</style></defs><title>282104-pictogram</title><g id="outlines_--_combound_path" data-name="outlines -- combound path"><path d="M188.51,61.4a41.1,41.1,0,0,0-79-8.27,23.73,23.73,0,0,0-23,20.51,24.07,24.07,0,0,0-25.29,24s0,0,0,.07H37.34V207.89h-8v4h48V101.72h44V211.89h12v-4h-8V121.7h53.8a30.86,30.86,0,0,0,9.29-60.29ZM61.38,207.89h-8V181.77h8Zm0-30.12h-8v-8h8Zm12,30.13h-8V165.77h-16v42.12h-8V101.72h32Zm105.85-90.2h-53.8v-20H65.24s0,0,0-.07A20,20,0,0,1,88,77.81l2.17.31.11-2.19a19.74,19.74,0,0,1,19.75-18.79l.76,0,1.49.06.48-1.41a37.1,37.1,0,0,1,71.92,7.41l.16,1.34,1.3.35a26.86,26.86,0,0,1-7,52.8Z"/><path d="M65.38,137.74h-16v20h16Zm-4,16h-8v-12h8Z"/><path d="M65.38,109.72h-16v20h16Zm-4,16h-8v-12h8Z"/></g><g id="color_band" data-name="color band"><rect class="cls-1" x="85.11" y="109.72" width="28.57" height="102.18"/><rect class="cls-1" x="148.45" y="74.75" width="28.57" height="102.18"/></g><g id="_100_band" data-name="100% band"><rect class="cls-2" x="85.11" y="109.71" width="28.57" height="25.54"/><rect class="cls-2" x="148.45" y="151.39" width="28.57" height="25.54"/></g><g id="_70_band" data-name="70% band"><rect class="cls-3" x="85.11" y="135.26" width="28.57" height="25.54"/><rect class="cls-3" x="148.45" y="125.84" width="28.57" height="25.54"/></g><g id="_40_band" data-name="40% band"><rect class="cls-4" x="85.11" y="160.81" width="28.57" height="25.54"/><rect class="cls-4" x="148.45" y="100.29" width="28.57" height="25.54"/></g></svg>