<svg xmlns="http://www.w3.org/2000/svg" width="50" height="50" viewBox="0 0 50 50">
  <path id="Shape_9" data-name="Shape 9" d="M859.472,4981.235a5.055,5.055,0,0,0-3.4,5.084l.053.865-.874-.106a14.185,14.185,0,0,1-8.312-4.1l-1.152-1.147-.3.848a5.1,5.1,0,0,0,1.083,5.227c.7.741.541.847-.664.406a2.064,2.064,0,0,0-.821-.194,6.34,6.34,0,0,0,.629,2.366,5.643,5.643,0,0,0,2.392,2.26l.856.405-1.012.018c-.977,0-1.013.018-.907.39a5.28,5.28,0,0,0,3.265,2.9l1.082.371-.942.564a9.779,9.779,0,0,1-4.68,1.306,5.106,5.106,0,0,0-1.432.142,13.376,13.376,0,0,0,3.37,1.554,14.733,14.733,0,0,0,11.455-1.307,15.347,15.347,0,0,0,5.815-6.85,18.231,18.231,0,0,0,1.188-5.3c0-.813.052-.919,1.03-1.89a11.552,11.552,0,0,0,1.222-1.36c.174-.334.156-.334-.734-.035-1.484.53-1.694.459-.959-.335a5.141,5.141,0,0,0,1.187-1.889c0-.052-.262.036-.559.2a9.7,9.7,0,0,1-1.537.6l-.942.3-.855-.584a7.159,7.159,0,0,0-1.484-.776A5.969,5.969,0,0,0,859.472,4981.235ZM856,5016a25,25,0,1,1,25-25A25,25,0,0,1,856,5016Z" transform="translate(-831 -4965.999)" fill="#fff"/>
</svg>
