<svg id="Inteligentny_obiekt_wektorowy" data-name="Inteligentny obiekt wektorowy" xmlns="http://www.w3.org/2000/svg" xmlns:xlink="http://www.w3.org/1999/xlink" width="98" height="100" viewBox="0 0 98 100">
  <defs>
    <clipPath id="clip-path">
      <rect id="Rectangle_8" data-name="Rectangle 8" width="98" height="100" fill="none"/>
    </clipPath>
  </defs>
  <g id="Group_4" data-name="Group 4">
    <g id="Group_3" data-name="Group 3" clip-path="url(#clip-path)">
      <path id="Path_5" data-name="Path 5" d="M75.956,51.994l-10.6-13.416a22.589,22.589,0,0,0,6.412-14.222H88.183v1.786a8.163,8.163,0,1,0,3.265,0v-3.41a1.629,1.629,0,0,0-1.632-1.624H71.772A22.512,22.512,0,0,0,66.988,8.76L69.266,6.5H88.482a4.9,4.9,0,0,0,9.237-3.247,4.906,4.906,0,0,0-9.235,0H68.59a1.639,1.639,0,0,0-1.154.476L64.8,6.346a22.9,22.9,0,0,0-32.25.6,22.625,22.625,0,0,0-6.325,14.158H12.508L7.171,9.17A4.841,4.841,0,0,0,9.218,2.613,4.9,4.9,0,0,0,2.624.577,4.847,4.847,0,0,0,3.79,9.6L9.953,23.393a1.633,1.633,0,0,0,1.493.962H26.223a22.572,22.572,0,0,0,6.3,14.09L18.737,52.152A16.229,16.229,0,1,0,13.9,84.246q.4.061.81.1v8.2a1.628,1.628,0,0,0,1.632,1.623H31.338a4.861,4.861,0,1,0,0-3.247H17.976V84.346a16.207,16.207,0,0,0,4.408-31.226l12.572-12.5a22.808,22.808,0,0,0,27.95.112L71.964,52.2a22.887,22.887,0,1,0,3.992-.2M94.712,34.1a4.9,4.9,0,1,1-4.9-4.871,4.884,4.884,0,0,1,4.9,4.871M93.08,3.249a1.624,1.624,0,1,1-1.633,1.623A1.628,1.628,0,0,1,93.08,3.249M4.914,6.5A1.624,1.624,0,1,1,6.547,4.872,1.629,1.629,0,0,1,4.914,6.5M35.935,90.924A1.624,1.624,0,1,1,34.3,92.548a1.629,1.629,0,0,1,1.632-1.624m-13.061-11.5a13.016,13.016,0,0,1-13.062,0V76.312a6.531,6.531,0,0,1,13.062,0Zm-9.8-16.1a3.265,3.265,0,1,1,3.265,3.247,3.256,3.256,0,0,1-3.265-3.247m13.061-3.748a12.934,12.934,0,0,1,0,17.182v-.445a9.734,9.734,0,0,0-5.073-8.53,6.468,6.468,0,0,0-.214-9.181,6.557,6.557,0,0,0-9.234.213,6.467,6.467,0,0,0,0,8.968,9.737,9.737,0,0,0-5.071,8.53v.444A12.938,12.938,0,0,1,7.7,58.423a13.111,13.111,0,0,1,18.435,1.151M60.427,38.519a19.542,19.542,0,0,1-22.858,0V34.584a5.373,5.373,0,0,1,5.388-5.358h3.625l-2.37,5.891a1.619,1.619,0,0,0,.363,1.752l3.265,3.247a1.64,1.64,0,0,0,2.308,0l3.266-3.247a1.617,1.617,0,0,0,.362-1.752l-2.367-5.891h3.629a5.373,5.373,0,0,1,5.389,5.358Zm-11.2-26.366a1.579,1.579,0,0,0-.148.321c-.827,2.463-5.288,3.4-8.159,3.668C41.363,10.7,43.937,8.119,49,8.119c4.634,0,7.185,2.179,7.914,6.725L51.471,11.6a1.638,1.638,0,0,0-2.24.557m2.017,3.1,5.836,3.482c-.655,3.975-5.58,7.243-8.086,7.243A10.274,10.274,0,0,1,41.06,19.4c2.8-.229,7.842-1.072,10.188-4.147m-.9,20.076L49,36.672,47.649,35.33,49,31.973Zm5.775-9.276a11.259,11.259,0,0,0,4.305-8.193C60.427,7.126,54.21,4.872,49,4.872S37.569,7.126,37.569,17.861a11.257,11.257,0,0,0,4.305,8.2,8.593,8.593,0,0,0-7.57,8.525v.987a19.407,19.407,0,0,1,1.735-27.5A19.669,19.669,0,0,1,63.691,9.8a19.4,19.4,0,0,1,0,25.774v-.987a8.593,8.593,0,0,0-7.57-8.531M86.549,90.475a19.541,19.541,0,0,1-22.857,0V86.54a5.373,5.373,0,0,1,5.389-5.358H72.7l-2.369,5.89a1.619,1.619,0,0,0,.362,1.752l3.266,3.248a1.639,1.639,0,0,0,2.308,0l3.265-3.248a1.618,1.618,0,0,0,.362-1.752l-2.367-5.89h3.63a5.372,5.372,0,0,1,5.387,5.358ZM77.373,67.209h0l5.834,3.482c-.655,3.976-5.58,7.244-8.086,7.244a10.273,10.273,0,0,1-7.936-6.579c2.795-.228,7.842-1.072,10.189-4.147M67.048,68.1h0c.436-5.44,3.011-8.023,8.073-8.023,4.634,0,7.184,2.179,7.914,6.724l-5.44-3.247a1.639,1.639,0,0,0-2.239.557,1.591,1.591,0,0,0-.149.322c-.826,2.463-5.286,3.4-8.158,3.667m9.422,19.187L75.12,88.628l-1.348-1.343,1.348-3.356Zm13.346.246V86.54a8.594,8.594,0,0,0-7.571-8.531,11.25,11.25,0,0,0,4.305-8.193c0-10.736-6.215-12.989-11.428-12.989S63.691,59.081,63.691,69.817A11.252,11.252,0,0,0,68,78.014a8.594,8.594,0,0,0-7.57,8.526v.986A19.4,19.4,0,0,1,62.2,60.046a19.659,19.659,0,0,1,27.635,1.766,19.365,19.365,0,0,1-.023,25.719" fill="#fff"/>
      <path id="Path_6" data-name="Path 6" d="M56.308,79.571l-9.88,2.687A29.267,29.267,0,0,0,60.264,100l5.076-8.848a19.1,19.1,0,0,1-9.032-11.581" fill="#eeaa28"/>
      <path id="Path_7" data-name="Path 7" d="M49.26,59.984a29.1,29.1,0,0,0-2.832,22.274l9.88-2.687a19,19,0,0,1,1.848-14.54Z" fill="#ea9124"/>
      <path id="Path_8" data-name="Path 8" d="M67.1,46.224A29.384,29.384,0,0,0,49.26,59.984l8.9,5.048A19.188,19.188,0,0,1,69.8,56.049Z" fill="#e6781f"/>
      <path id="Path_9" data-name="Path 9" d="M69.8,56.049a19.3,19.3,0,0,1,14.622,1.838L89.5,49.041a29.547,29.547,0,0,0-22.4-2.817Z" fill="#e1561b"/>
    </g>
  </g>
</svg>
