<?xml version="1.0" encoding="utf-8"?>
<!-- Generator: Adobe Illustrator 24.0.1, SVG Export Plug-In . SVG Version: 6.00 Build 0)  -->
<svg version="1.1" id="Capa_1" xmlns="http://www.w3.org/2000/svg" xmlns:xlink="http://www.w3.org/1999/xlink" x="0px" y="0px"
	 viewBox="0 0 60 60" style="enable-background:new 0 0 60 60;" xml:space="preserve">
<style type="text/css">
	.st0{fill:#492507;}
	.st1{fill:#FA7B00;}
	.st2{fill:#FFFFFF;}
</style>
<g>
	<polygon class="st0" points="53.2,49 53.2,49 53.2,49 	"/>
	<path class="st1" d="M60,30c0-7.2-2.5-13.8-6.8-19c-0.4-0.5-0.8-1-1.3-1.4C46.5,3.7,38.7,0,30,0C13.5,0,0,13.5,0,30s13.5,30,30,30
		c9.3,0,17.7-4.3,23.2-11c0,0,0,0,0,0C57.5,43.8,60,37.2,60,30z"/>
</g>
<path class="st2" d="M46,30c0,0.3-0.2,0.6-0.4,0.8l-22,15C23.4,45.9,23.2,46,23,46c-0.2,0-0.3,0-0.5-0.1C22.2,45.7,22,45.4,22,45V15
	c0-0.4,0.2-0.7,0.5-0.9c0.3-0.2,0.7-0.2,1,0.1l22,15C45.8,29.4,46,29.7,46,30z"/>
</svg>
